M48
;DRILL file {KiCad 4.0.0-1rc2.201511201506+6189~38~ubuntu15.04.1-stable} date Fr 22 Jan 2016 14:24:52 CET
;FORMAT={-:-/ absolute / metric / decimal}
FMAT,2
METRIC,TZ
T1C0.800
T2C0.800
T3C1.001
T4C1.016
%
G90
G05
M71
T1
X15.24Y-38.1
X22.86Y-22.86
X22.86Y-25.4
X22.86Y-27.94
X22.86Y-30.48
X22.86Y-33.02
X22.86Y-35.56
X22.86Y-38.1
X22.86Y-40.64
X22.86Y-43.18
X22.86Y-45.72
X22.86Y-48.26
X22.86Y-50.8
X22.86Y-53.34
X22.86Y-55.88
X22.86Y-63.5
X30.48Y-22.86
X30.48Y-25.4
X30.48Y-27.94
X30.48Y-30.48
X30.48Y-33.02
X30.48Y-35.56
X30.48Y-38.1
X30.48Y-40.64
X30.48Y-43.18
X30.48Y-45.72
X30.48Y-48.26
X30.48Y-50.8
X30.48Y-53.34
X30.48Y-55.88
X33.02Y-60.96
T2
X15.24Y-40.6
X22.86Y-61.
X33.02Y-63.46
T3
X15.24Y-17.821
X15.24Y-22.822
X16.591Y-13.797
X21.494Y-18.671
X27.198Y-24.404
X36.266Y-16.066
T4
X17.78Y-22.86
X17.78Y-25.4
X17.78Y-27.94
X17.78Y-30.48
X17.78Y-33.02
X17.78Y-35.56
X17.78Y-38.1
X17.78Y-40.64
X17.78Y-43.18
X17.78Y-45.72
X17.78Y-48.26
X17.78Y-50.8
X17.78Y-53.34
X17.78Y-55.88
X20.32Y-15.24
X22.86Y-15.24
X25.4Y-60.96
X27.94Y-15.24
X27.94Y-17.78
X30.48Y-15.24
X30.48Y-17.78
X30.48Y-60.96
X33.02Y-15.24
X33.02Y-17.78
X35.56Y-22.86
X35.56Y-25.4
X35.56Y-27.94
X35.56Y-30.48
X35.56Y-33.02
X35.56Y-35.56
X35.56Y-38.1
X35.56Y-40.64
X35.56Y-43.18
X35.56Y-45.72
X35.56Y-48.26
X35.56Y-50.8
X35.56Y-53.34
X35.56Y-55.88
T0
M30
