G04 #@! TF.FileFunction,Copper,L1,Top,Signal*
%FSLAX46Y46*%
G04 Gerber Fmt 4.6, Leading zero omitted, Abs format (unit mm)*
G04 Created by KiCad (PCBNEW 4.0.0-1rc2.201511201506+6189~38~ubuntu15.04.1-stable) date Fr 22 Jan 2016 14:24:20 CET*
%MOMM*%
G01*
G04 APERTURE LIST*
%ADD10C,0.300000*%
%ADD11R,1.300000X1.300000*%
%ADD12C,1.300000*%
%ADD13O,1.600000X1.600000*%
%ADD14R,2.032000X2.032000*%
%ADD15O,2.032000X2.032000*%
%ADD16R,2.032000X1.727200*%
%ADD17O,2.032000X1.727200*%
%ADD18R,1.727200X1.727200*%
%ADD19O,1.727200X1.727200*%
%ADD20C,1.998980*%
%ADD21R,2.235200X2.235200*%
%ADD22C,0.500000*%
%ADD23C,0.254000*%
G04 APERTURE END LIST*
D10*
D11*
X15240000Y-38100000D03*
D12*
X15240000Y-40600000D03*
D11*
X33020000Y-60960000D03*
D12*
X33020000Y-63460000D03*
D11*
X22860000Y-63500000D03*
D12*
X22860000Y-61000000D03*
D13*
X22860000Y-22860000D03*
X22860000Y-25400000D03*
X22860000Y-27940000D03*
X22860000Y-30480000D03*
X22860000Y-33020000D03*
X22860000Y-35560000D03*
X22860000Y-38100000D03*
X22860000Y-40640000D03*
X22860000Y-43180000D03*
X22860000Y-45720000D03*
X22860000Y-48260000D03*
X22860000Y-50800000D03*
X22860000Y-53340000D03*
X22860000Y-55880000D03*
X30480000Y-55880000D03*
X30480000Y-53340000D03*
X30480000Y-50800000D03*
X30480000Y-48260000D03*
X30480000Y-45720000D03*
X30480000Y-43180000D03*
X30480000Y-40640000D03*
X30480000Y-38100000D03*
X30480000Y-35560000D03*
X30480000Y-33020000D03*
X30480000Y-30480000D03*
X30480000Y-27940000D03*
X30480000Y-25400000D03*
X30480000Y-22860000D03*
D14*
X20320000Y-15240000D03*
D15*
X22860000Y-15240000D03*
D16*
X17780000Y-22860000D03*
D17*
X17780000Y-25400000D03*
X17780000Y-27940000D03*
X17780000Y-30480000D03*
D14*
X17780000Y-43180000D03*
D15*
X17780000Y-45720000D03*
D16*
X17780000Y-48260000D03*
D17*
X17780000Y-50800000D03*
X17780000Y-53340000D03*
X17780000Y-55880000D03*
D16*
X17780000Y-33020000D03*
D17*
X17780000Y-35560000D03*
X17780000Y-38100000D03*
X17780000Y-40640000D03*
D18*
X33020000Y-15240000D03*
D19*
X33020000Y-17780000D03*
X30480000Y-15240000D03*
X30480000Y-17780000D03*
X27940000Y-15240000D03*
X27940000Y-17780000D03*
D20*
X15240000Y-17820640D03*
X15240000Y-22821900D03*
X27198101Y-24404101D03*
X16591499Y-13797499D03*
X21493742Y-18670881D03*
X36265858Y-16066159D03*
D16*
X35560000Y-35560000D03*
D17*
X35560000Y-33020000D03*
X35560000Y-30480000D03*
X35560000Y-27940000D03*
X35560000Y-25400000D03*
X35560000Y-22860000D03*
D14*
X35560000Y-55880000D03*
D15*
X35560000Y-53340000D03*
D16*
X35560000Y-50800000D03*
D17*
X35560000Y-48260000D03*
X35560000Y-45720000D03*
X35560000Y-43180000D03*
X35560000Y-40640000D03*
X35560000Y-38100000D03*
D21*
X25400000Y-60960000D03*
X30480000Y-60960000D03*
D22*
X33020000Y-15240000D02*
X35439699Y-15240000D01*
X35439699Y-15240000D02*
X36265858Y-16066159D01*
X35439699Y-15240000D02*
X36265858Y-16066159D01*
X21493742Y-18670881D02*
X21493742Y-16413742D01*
X21493742Y-16413742D02*
X20320000Y-15240000D01*
X22860000Y-38100000D02*
X25400000Y-38100000D01*
X25400000Y-38100000D02*
X30480000Y-43180000D01*
X15240000Y-17820640D02*
X14366240Y-17820640D01*
X14366240Y-17820640D02*
X13159740Y-19027140D01*
X13159740Y-36019740D02*
X15240000Y-38100000D01*
X13159740Y-19027140D02*
X13159740Y-36019740D01*
X15240000Y-38100000D02*
X17780000Y-38100000D01*
X15240000Y-17820640D02*
X17739360Y-17820640D01*
X17739360Y-17820640D02*
X20320000Y-15240000D01*
X17780000Y-38100000D02*
X22860000Y-38100000D01*
X30480000Y-43180000D02*
X35560000Y-43180000D01*
X15240000Y-40600000D02*
X17740000Y-40600000D01*
X17740000Y-40600000D02*
X17780000Y-40640000D01*
X17780000Y-40640000D02*
X22860000Y-40640000D01*
X30480000Y-38100000D02*
X35560000Y-38100000D01*
X22860000Y-43180000D02*
X25400000Y-43180000D01*
X27940000Y-58420000D02*
X30480000Y-60960000D01*
X27940000Y-45720000D02*
X27940000Y-58420000D01*
X25400000Y-43180000D02*
X27940000Y-45720000D01*
X30480000Y-60960000D02*
X33020000Y-60960000D01*
X17780000Y-43180000D02*
X22860000Y-43180000D01*
X25400000Y-60960000D02*
X25400000Y-48260000D01*
X25400000Y-48260000D02*
X22860000Y-45720000D01*
X22860000Y-61000000D02*
X25360000Y-61000000D01*
X25360000Y-61000000D02*
X25400000Y-60960000D01*
X17780000Y-45720000D02*
X22860000Y-45720000D01*
X27940000Y-17780000D02*
X22860000Y-22860000D01*
X17780000Y-22860000D02*
X15278100Y-22860000D01*
X15278100Y-22860000D02*
X15240000Y-22821900D01*
X17780000Y-22860000D02*
X22860000Y-22860000D01*
X17780000Y-25400000D02*
X22860000Y-25400000D01*
X17780000Y-27940000D02*
X22860000Y-27940000D01*
X17780000Y-30480000D02*
X22860000Y-30480000D01*
X17780000Y-33020000D02*
X22860000Y-33020000D01*
X17780000Y-35560000D02*
X22860000Y-35560000D01*
X17780000Y-48260000D02*
X22860000Y-48260000D01*
X17780000Y-50800000D02*
X22860000Y-50800000D01*
X17780000Y-53340000D02*
X22860000Y-53340000D01*
X17780000Y-55880000D02*
X22860000Y-55880000D01*
X30480000Y-55880000D02*
X35560000Y-55880000D01*
X30480000Y-53340000D02*
X35560000Y-53340000D01*
X30480000Y-15240000D02*
X30480000Y-14668500D01*
X30480000Y-14668500D02*
X32194500Y-12954000D01*
X32194500Y-12954000D02*
X36842700Y-12954000D01*
X36842700Y-12954000D02*
X39281100Y-15392400D01*
X39281100Y-15392400D02*
X39281100Y-47078900D01*
X39281100Y-47078900D02*
X35560000Y-50800000D01*
X30480000Y-50800000D02*
X35560000Y-50800000D01*
X33020000Y-17780000D02*
X35570160Y-17780000D01*
X38409880Y-45410120D02*
X35560000Y-48260000D01*
X38409880Y-20619720D02*
X38409880Y-45410120D01*
X35570160Y-17780000D02*
X38409880Y-20619720D01*
X30480000Y-48260000D02*
X35560000Y-48260000D01*
X30480000Y-17780000D02*
X30480000Y-20782280D01*
X37571680Y-43708320D02*
X35560000Y-45720000D01*
X37571680Y-21010880D02*
X37571680Y-43708320D01*
X37012880Y-20452080D02*
X37571680Y-21010880D01*
X30810200Y-20452080D02*
X37012880Y-20452080D01*
X30480000Y-20782280D02*
X30810200Y-20452080D01*
X30480000Y-45720000D02*
X35560000Y-45720000D01*
X30480000Y-40640000D02*
X35560000Y-40640000D01*
X30480000Y-35560000D02*
X35560000Y-35560000D01*
X30480000Y-33020000D02*
X35560000Y-33020000D01*
X30480000Y-30480000D02*
X35560000Y-30480000D01*
X30480000Y-27940000D02*
X35560000Y-27940000D01*
X30480000Y-25400000D02*
X35560000Y-25400000D01*
X30480000Y-22860000D02*
X35560000Y-22860000D01*
D23*
G36*
X41107360Y-65712340D02*
X12024360Y-65712340D01*
X12024360Y-63785750D01*
X21575000Y-63785750D01*
X21575000Y-64276309D01*
X21671673Y-64509698D01*
X21850301Y-64688327D01*
X22083690Y-64785000D01*
X22574250Y-64785000D01*
X22733000Y-64626250D01*
X22733000Y-63627000D01*
X22987000Y-63627000D01*
X22987000Y-64626250D01*
X23145750Y-64785000D01*
X23636310Y-64785000D01*
X23869699Y-64688327D01*
X24048327Y-64509698D01*
X24110741Y-64359016D01*
X32300590Y-64359016D01*
X32356271Y-64589611D01*
X32839078Y-64757622D01*
X33349428Y-64728083D01*
X33683729Y-64589611D01*
X33739410Y-64359016D01*
X33020000Y-63639605D01*
X32300590Y-64359016D01*
X24110741Y-64359016D01*
X24145000Y-64276309D01*
X24145000Y-63785750D01*
X23986250Y-63627000D01*
X22987000Y-63627000D01*
X22733000Y-63627000D01*
X21733750Y-63627000D01*
X21575000Y-63785750D01*
X12024360Y-63785750D01*
X12024360Y-41499016D01*
X14520590Y-41499016D01*
X14576271Y-41729611D01*
X15059078Y-41897622D01*
X15569428Y-41868083D01*
X15903729Y-41729611D01*
X15959410Y-41499016D01*
X15240000Y-40779605D01*
X14520590Y-41499016D01*
X12024360Y-41499016D01*
X12024360Y-40419078D01*
X13942378Y-40419078D01*
X13971917Y-40929428D01*
X14110389Y-41263729D01*
X14340984Y-41319410D01*
X15060395Y-40600000D01*
X14340984Y-39880590D01*
X14110389Y-39936271D01*
X13942378Y-40419078D01*
X12024360Y-40419078D01*
X12024360Y-19027140D01*
X12274739Y-19027140D01*
X12274740Y-19027145D01*
X12274740Y-36019735D01*
X12274739Y-36019740D01*
X12330930Y-36302224D01*
X12342107Y-36358415D01*
X12513428Y-36614816D01*
X12533950Y-36645530D01*
X13942560Y-38054139D01*
X13942560Y-38750000D01*
X13986838Y-38985317D01*
X14125910Y-39201441D01*
X14338110Y-39346431D01*
X14590000Y-39397440D01*
X14752385Y-39397440D01*
X14576271Y-39470389D01*
X14520590Y-39700984D01*
X15240000Y-40420395D01*
X15959410Y-39700984D01*
X15903729Y-39470389D01*
X15694098Y-39397440D01*
X15890000Y-39397440D01*
X16125317Y-39353162D01*
X16341441Y-39214090D01*
X16457981Y-39043528D01*
X16535585Y-39159670D01*
X16845069Y-39366461D01*
X16429268Y-39737964D01*
X16337480Y-39928512D01*
X16139016Y-39880590D01*
X15419605Y-40600000D01*
X16139016Y-41319410D01*
X16302959Y-41279823D01*
X16429268Y-41542036D01*
X16483124Y-41590154D01*
X16312559Y-41699910D01*
X16167569Y-41912110D01*
X16116560Y-42164000D01*
X16116560Y-44196000D01*
X16160838Y-44431317D01*
X16299910Y-44647441D01*
X16448837Y-44749198D01*
X16222330Y-45088190D01*
X16096655Y-45720000D01*
X16222330Y-46351810D01*
X16520711Y-46798368D01*
X16312559Y-46932310D01*
X16167569Y-47144510D01*
X16116560Y-47396400D01*
X16116560Y-49123600D01*
X16160838Y-49358917D01*
X16299910Y-49575041D01*
X16512110Y-49720031D01*
X16553439Y-49728400D01*
X16535585Y-49740330D01*
X16210729Y-50226511D01*
X16096655Y-50800000D01*
X16210729Y-51373489D01*
X16535585Y-51859670D01*
X16850366Y-52070000D01*
X16535585Y-52280330D01*
X16210729Y-52766511D01*
X16096655Y-53340000D01*
X16210729Y-53913489D01*
X16535585Y-54399670D01*
X16850366Y-54610000D01*
X16535585Y-54820330D01*
X16210729Y-55306511D01*
X16096655Y-55880000D01*
X16210729Y-56453489D01*
X16535585Y-56939670D01*
X17021766Y-57264526D01*
X17595255Y-57378600D01*
X17964745Y-57378600D01*
X18538234Y-57264526D01*
X19024415Y-56939670D01*
X19141126Y-56765000D01*
X21730527Y-56765000D01*
X21817189Y-56894698D01*
X22282736Y-57205767D01*
X22831887Y-57315000D01*
X22888113Y-57315000D01*
X23437264Y-57205767D01*
X23902811Y-56894698D01*
X24213880Y-56429151D01*
X24323113Y-55880000D01*
X24213880Y-55330849D01*
X23902811Y-54865302D01*
X23520725Y-54610000D01*
X23902811Y-54354698D01*
X24213880Y-53889151D01*
X24323113Y-53340000D01*
X24213880Y-52790849D01*
X23902811Y-52325302D01*
X23520725Y-52070000D01*
X23902811Y-51814698D01*
X24213880Y-51349151D01*
X24323113Y-50800000D01*
X24213880Y-50250849D01*
X23902811Y-49785302D01*
X23520725Y-49530000D01*
X23902811Y-49274698D01*
X24213880Y-48809151D01*
X24294130Y-48405709D01*
X24515000Y-48626579D01*
X24515000Y-59194960D01*
X24282400Y-59194960D01*
X24047083Y-59239238D01*
X23830959Y-59378310D01*
X23685969Y-59590510D01*
X23634960Y-59842400D01*
X23634960Y-59957461D01*
X23588845Y-59911265D01*
X23116724Y-59715223D01*
X22605519Y-59714777D01*
X22133057Y-59909995D01*
X21771265Y-60271155D01*
X21575223Y-60743276D01*
X21574777Y-61254481D01*
X21769995Y-61726943D01*
X22131155Y-62088735D01*
X22435235Y-62215000D01*
X22083690Y-62215000D01*
X21850301Y-62311673D01*
X21671673Y-62490302D01*
X21575000Y-62723691D01*
X21575000Y-63214250D01*
X21733750Y-63373000D01*
X22733000Y-63373000D01*
X22733000Y-63353000D01*
X22987000Y-63353000D01*
X22987000Y-63373000D01*
X23986250Y-63373000D01*
X24080172Y-63279078D01*
X31722378Y-63279078D01*
X31751917Y-63789428D01*
X31890389Y-64123729D01*
X32120984Y-64179410D01*
X32840395Y-63460000D01*
X33199605Y-63460000D01*
X33919016Y-64179410D01*
X34149611Y-64123729D01*
X34317622Y-63640922D01*
X34288083Y-63130572D01*
X34149611Y-62796271D01*
X33919016Y-62740590D01*
X33199605Y-63460000D01*
X32840395Y-63460000D01*
X32120984Y-62740590D01*
X31890389Y-62796271D01*
X31722378Y-63279078D01*
X24080172Y-63279078D01*
X24145000Y-63214250D01*
X24145000Y-62723691D01*
X24133030Y-62694792D01*
X24282400Y-62725040D01*
X26517600Y-62725040D01*
X26752917Y-62680762D01*
X26969041Y-62541690D01*
X27114031Y-62329490D01*
X27165040Y-62077600D01*
X27165040Y-59842400D01*
X27120762Y-59607083D01*
X26981690Y-59390959D01*
X26769490Y-59245969D01*
X26517600Y-59194960D01*
X26285000Y-59194960D01*
X26285000Y-48260000D01*
X26217633Y-47921325D01*
X26025790Y-47634210D01*
X26025787Y-47634208D01*
X24288017Y-45896438D01*
X24323113Y-45720000D01*
X24213880Y-45170849D01*
X23902811Y-44705302D01*
X23520725Y-44450000D01*
X23902811Y-44194698D01*
X23989473Y-44065000D01*
X25033420Y-44065000D01*
X27055000Y-46086579D01*
X27055000Y-58419995D01*
X27054999Y-58420000D01*
X27111190Y-58702484D01*
X27122367Y-58758675D01*
X27314210Y-59045790D01*
X28714960Y-60446539D01*
X28714960Y-62077600D01*
X28759238Y-62312917D01*
X28898310Y-62529041D01*
X29110510Y-62674031D01*
X29362400Y-62725040D01*
X31597600Y-62725040D01*
X31832917Y-62680762D01*
X32049041Y-62541690D01*
X32194031Y-62329490D01*
X32214979Y-62226047D01*
X32370000Y-62257440D01*
X32532385Y-62257440D01*
X32356271Y-62330389D01*
X32300590Y-62560984D01*
X33020000Y-63280395D01*
X33739410Y-62560984D01*
X33683729Y-62330389D01*
X33474098Y-62257440D01*
X33670000Y-62257440D01*
X33905317Y-62213162D01*
X34121441Y-62074090D01*
X34266431Y-61861890D01*
X34317440Y-61610000D01*
X34317440Y-60310000D01*
X34273162Y-60074683D01*
X34134090Y-59858559D01*
X33921890Y-59713569D01*
X33670000Y-59662560D01*
X32370000Y-59662560D01*
X32216631Y-59691418D01*
X32200762Y-59607083D01*
X32061690Y-59390959D01*
X31849490Y-59245969D01*
X31597600Y-59194960D01*
X29966539Y-59194960D01*
X28825000Y-58053420D01*
X28825000Y-45720000D01*
X28757633Y-45381325D01*
X28565790Y-45094210D01*
X28565787Y-45094208D01*
X26025790Y-42554210D01*
X25738675Y-42362367D01*
X25682484Y-42351190D01*
X25400000Y-42294999D01*
X25399995Y-42295000D01*
X23989473Y-42295000D01*
X23902811Y-42165302D01*
X23498297Y-41895014D01*
X23715134Y-41792389D01*
X24091041Y-41377423D01*
X24251904Y-40989039D01*
X24129915Y-40767000D01*
X22987000Y-40767000D01*
X22987000Y-40787000D01*
X22733000Y-40787000D01*
X22733000Y-40767000D01*
X21590085Y-40767000D01*
X21468096Y-40989039D01*
X21628959Y-41377423D01*
X22004866Y-41792389D01*
X22221703Y-41895014D01*
X21817189Y-42165302D01*
X21730527Y-42295000D01*
X19443440Y-42295000D01*
X19443440Y-42164000D01*
X19399162Y-41928683D01*
X19260090Y-41712559D01*
X19078639Y-41588579D01*
X19130732Y-41542036D01*
X19384709Y-41014791D01*
X19387358Y-40999026D01*
X19266217Y-40767000D01*
X17907000Y-40767000D01*
X17907000Y-40787000D01*
X17653000Y-40787000D01*
X17653000Y-40767000D01*
X17633000Y-40767000D01*
X17633000Y-40513000D01*
X17653000Y-40513000D01*
X17653000Y-40493000D01*
X17907000Y-40493000D01*
X17907000Y-40513000D01*
X19266217Y-40513000D01*
X19387358Y-40280974D01*
X19384709Y-40265209D01*
X19130732Y-39737964D01*
X18714931Y-39366461D01*
X19024415Y-39159670D01*
X19141126Y-38985000D01*
X21730527Y-38985000D01*
X21817189Y-39114698D01*
X22221703Y-39384986D01*
X22004866Y-39487611D01*
X21628959Y-39902577D01*
X21468096Y-40290961D01*
X21590085Y-40513000D01*
X22733000Y-40513000D01*
X22733000Y-40493000D01*
X22987000Y-40493000D01*
X22987000Y-40513000D01*
X24129915Y-40513000D01*
X24251904Y-40290961D01*
X24091041Y-39902577D01*
X23715134Y-39487611D01*
X23498297Y-39384986D01*
X23902811Y-39114698D01*
X23989473Y-38985000D01*
X25033420Y-38985000D01*
X29051983Y-43003562D01*
X29016887Y-43180000D01*
X29126120Y-43729151D01*
X29437189Y-44194698D01*
X29819275Y-44450000D01*
X29437189Y-44705302D01*
X29126120Y-45170849D01*
X29016887Y-45720000D01*
X29126120Y-46269151D01*
X29437189Y-46734698D01*
X29819275Y-46990000D01*
X29437189Y-47245302D01*
X29126120Y-47710849D01*
X29016887Y-48260000D01*
X29126120Y-48809151D01*
X29437189Y-49274698D01*
X29819275Y-49530000D01*
X29437189Y-49785302D01*
X29126120Y-50250849D01*
X29016887Y-50800000D01*
X29126120Y-51349151D01*
X29437189Y-51814698D01*
X29819275Y-52070000D01*
X29437189Y-52325302D01*
X29126120Y-52790849D01*
X29016887Y-53340000D01*
X29126120Y-53889151D01*
X29437189Y-54354698D01*
X29819275Y-54610000D01*
X29437189Y-54865302D01*
X29126120Y-55330849D01*
X29016887Y-55880000D01*
X29126120Y-56429151D01*
X29437189Y-56894698D01*
X29902736Y-57205767D01*
X30451887Y-57315000D01*
X30508113Y-57315000D01*
X31057264Y-57205767D01*
X31522811Y-56894698D01*
X31609473Y-56765000D01*
X33896560Y-56765000D01*
X33896560Y-56896000D01*
X33940838Y-57131317D01*
X34079910Y-57347441D01*
X34292110Y-57492431D01*
X34544000Y-57543440D01*
X36576000Y-57543440D01*
X36811317Y-57499162D01*
X37027441Y-57360090D01*
X37172431Y-57147890D01*
X37223440Y-56896000D01*
X37223440Y-54864000D01*
X37179162Y-54628683D01*
X37040090Y-54412559D01*
X36891163Y-54310802D01*
X37117670Y-53971810D01*
X37243345Y-53340000D01*
X37117670Y-52708190D01*
X36819289Y-52261632D01*
X37027441Y-52127690D01*
X37172431Y-51915490D01*
X37223440Y-51663600D01*
X37223440Y-50388140D01*
X39906887Y-47704692D01*
X39906890Y-47704690D01*
X40098733Y-47417575D01*
X40107202Y-47375000D01*
X40166101Y-47078900D01*
X40166100Y-47078895D01*
X40166100Y-15392400D01*
X40098733Y-15053725D01*
X39906890Y-14766610D01*
X39906887Y-14766608D01*
X37468490Y-12328210D01*
X37181375Y-12136367D01*
X37125184Y-12125190D01*
X36842700Y-12068999D01*
X36842695Y-12069000D01*
X32194505Y-12069000D01*
X32194500Y-12068999D01*
X31855825Y-12136367D01*
X31568710Y-12328210D01*
X31568708Y-12328213D01*
X30111600Y-13785320D01*
X29906511Y-13826115D01*
X29420330Y-14150971D01*
X29204336Y-14474228D01*
X29146821Y-14351510D01*
X28714947Y-13957312D01*
X28299026Y-13785042D01*
X28067000Y-13906183D01*
X28067000Y-15113000D01*
X28087000Y-15113000D01*
X28087000Y-15367000D01*
X28067000Y-15367000D01*
X28067000Y-15387000D01*
X27813000Y-15387000D01*
X27813000Y-15367000D01*
X26605531Y-15367000D01*
X26485032Y-15599027D01*
X26733179Y-16128490D01*
X27151161Y-16510008D01*
X26880330Y-16690971D01*
X26555474Y-17177152D01*
X26441400Y-17750641D01*
X26441400Y-17809359D01*
X26477512Y-17990908D01*
X23017653Y-21450767D01*
X22888113Y-21425000D01*
X22831887Y-21425000D01*
X22282736Y-21534233D01*
X21817189Y-21845302D01*
X21730527Y-21975000D01*
X19439413Y-21975000D01*
X19399162Y-21761083D01*
X19260090Y-21544959D01*
X19047890Y-21399969D01*
X18796000Y-21348960D01*
X16764000Y-21348960D01*
X16528683Y-21393238D01*
X16312559Y-21532310D01*
X16292081Y-21562280D01*
X16167073Y-21437054D01*
X15566547Y-21187694D01*
X14916306Y-21187126D01*
X14315345Y-21435438D01*
X14044740Y-21705571D01*
X14044740Y-19393720D01*
X14272985Y-19165474D01*
X14312927Y-19205486D01*
X14913453Y-19454846D01*
X15563694Y-19455414D01*
X16164655Y-19207102D01*
X16624846Y-18747713D01*
X16642316Y-18705640D01*
X17739355Y-18705640D01*
X17739360Y-18705641D01*
X18021844Y-18649450D01*
X18078035Y-18638273D01*
X18365150Y-18446430D01*
X18365151Y-18446429D01*
X19908139Y-16903440D01*
X20608742Y-16903440D01*
X20608742Y-17268034D01*
X20569087Y-17284419D01*
X20108896Y-17743808D01*
X19859536Y-18344334D01*
X19858968Y-18994575D01*
X20107280Y-19595536D01*
X20566669Y-20055727D01*
X21167195Y-20305087D01*
X21817436Y-20305655D01*
X22418397Y-20057343D01*
X22878588Y-19597954D01*
X23127948Y-18997428D01*
X23128516Y-18347187D01*
X22880204Y-17746226D01*
X22420815Y-17286035D01*
X22378742Y-17268565D01*
X22378742Y-16805254D01*
X22477056Y-16845975D01*
X22733000Y-16726836D01*
X22733000Y-15367000D01*
X22987000Y-15367000D01*
X22987000Y-16726836D01*
X23242944Y-16845975D01*
X23724818Y-16646385D01*
X24197188Y-16208379D01*
X24465983Y-15622946D01*
X24347367Y-15367000D01*
X22987000Y-15367000D01*
X22733000Y-15367000D01*
X22713000Y-15367000D01*
X22713000Y-15113000D01*
X22733000Y-15113000D01*
X22733000Y-13753164D01*
X22987000Y-13753164D01*
X22987000Y-15113000D01*
X24347367Y-15113000D01*
X24454897Y-14880973D01*
X26485032Y-14880973D01*
X26605531Y-15113000D01*
X27813000Y-15113000D01*
X27813000Y-13906183D01*
X27580974Y-13785042D01*
X27165053Y-13957312D01*
X26733179Y-14351510D01*
X26485032Y-14880973D01*
X24454897Y-14880973D01*
X24465983Y-14857054D01*
X24197188Y-14271621D01*
X23724818Y-13833615D01*
X23242944Y-13634025D01*
X22987000Y-13753164D01*
X22733000Y-13753164D01*
X22477056Y-13634025D01*
X21995182Y-13833615D01*
X21897602Y-13924097D01*
X21800090Y-13772559D01*
X21587890Y-13627569D01*
X21336000Y-13576560D01*
X19304000Y-13576560D01*
X19068683Y-13620838D01*
X18852559Y-13759910D01*
X18707569Y-13972110D01*
X18656560Y-14224000D01*
X18656560Y-15651861D01*
X17372780Y-16935640D01*
X16642847Y-16935640D01*
X16626462Y-16895985D01*
X16167073Y-16435794D01*
X15566547Y-16186434D01*
X14916306Y-16185866D01*
X14315345Y-16434178D01*
X13855154Y-16893567D01*
X13722665Y-17212636D01*
X12533950Y-18401350D01*
X12342107Y-18688465D01*
X12330930Y-18744656D01*
X12274739Y-19027140D01*
X12024360Y-19027140D01*
X12024360Y-14182877D01*
X14970158Y-14182877D01*
X15241053Y-14774002D01*
X15717541Y-15216463D01*
X16206121Y-15418840D01*
X16464499Y-15299903D01*
X16464499Y-13924499D01*
X16718499Y-13924499D01*
X16718499Y-15299903D01*
X16976877Y-15418840D01*
X17568002Y-15147945D01*
X18010463Y-14671457D01*
X18212840Y-14182877D01*
X18093903Y-13924499D01*
X16718499Y-13924499D01*
X16464499Y-13924499D01*
X15089095Y-13924499D01*
X14970158Y-14182877D01*
X12024360Y-14182877D01*
X12024360Y-13412121D01*
X14970158Y-13412121D01*
X15089095Y-13670499D01*
X16464499Y-13670499D01*
X16464499Y-12295095D01*
X16718499Y-12295095D01*
X16718499Y-13670499D01*
X18093903Y-13670499D01*
X18212840Y-13412121D01*
X17941945Y-12820996D01*
X17465457Y-12378535D01*
X16976877Y-12176158D01*
X16718499Y-12295095D01*
X16464499Y-12295095D01*
X16206121Y-12176158D01*
X15614996Y-12447053D01*
X15172535Y-12923541D01*
X14970158Y-13412121D01*
X12024360Y-13412121D01*
X12024360Y-12019240D01*
X41107360Y-12004106D01*
X41107360Y-65712340D01*
X41107360Y-65712340D01*
G37*
X41107360Y-65712340D02*
X12024360Y-65712340D01*
X12024360Y-63785750D01*
X21575000Y-63785750D01*
X21575000Y-64276309D01*
X21671673Y-64509698D01*
X21850301Y-64688327D01*
X22083690Y-64785000D01*
X22574250Y-64785000D01*
X22733000Y-64626250D01*
X22733000Y-63627000D01*
X22987000Y-63627000D01*
X22987000Y-64626250D01*
X23145750Y-64785000D01*
X23636310Y-64785000D01*
X23869699Y-64688327D01*
X24048327Y-64509698D01*
X24110741Y-64359016D01*
X32300590Y-64359016D01*
X32356271Y-64589611D01*
X32839078Y-64757622D01*
X33349428Y-64728083D01*
X33683729Y-64589611D01*
X33739410Y-64359016D01*
X33020000Y-63639605D01*
X32300590Y-64359016D01*
X24110741Y-64359016D01*
X24145000Y-64276309D01*
X24145000Y-63785750D01*
X23986250Y-63627000D01*
X22987000Y-63627000D01*
X22733000Y-63627000D01*
X21733750Y-63627000D01*
X21575000Y-63785750D01*
X12024360Y-63785750D01*
X12024360Y-41499016D01*
X14520590Y-41499016D01*
X14576271Y-41729611D01*
X15059078Y-41897622D01*
X15569428Y-41868083D01*
X15903729Y-41729611D01*
X15959410Y-41499016D01*
X15240000Y-40779605D01*
X14520590Y-41499016D01*
X12024360Y-41499016D01*
X12024360Y-40419078D01*
X13942378Y-40419078D01*
X13971917Y-40929428D01*
X14110389Y-41263729D01*
X14340984Y-41319410D01*
X15060395Y-40600000D01*
X14340984Y-39880590D01*
X14110389Y-39936271D01*
X13942378Y-40419078D01*
X12024360Y-40419078D01*
X12024360Y-19027140D01*
X12274739Y-19027140D01*
X12274740Y-19027145D01*
X12274740Y-36019735D01*
X12274739Y-36019740D01*
X12330930Y-36302224D01*
X12342107Y-36358415D01*
X12513428Y-36614816D01*
X12533950Y-36645530D01*
X13942560Y-38054139D01*
X13942560Y-38750000D01*
X13986838Y-38985317D01*
X14125910Y-39201441D01*
X14338110Y-39346431D01*
X14590000Y-39397440D01*
X14752385Y-39397440D01*
X14576271Y-39470389D01*
X14520590Y-39700984D01*
X15240000Y-40420395D01*
X15959410Y-39700984D01*
X15903729Y-39470389D01*
X15694098Y-39397440D01*
X15890000Y-39397440D01*
X16125317Y-39353162D01*
X16341441Y-39214090D01*
X16457981Y-39043528D01*
X16535585Y-39159670D01*
X16845069Y-39366461D01*
X16429268Y-39737964D01*
X16337480Y-39928512D01*
X16139016Y-39880590D01*
X15419605Y-40600000D01*
X16139016Y-41319410D01*
X16302959Y-41279823D01*
X16429268Y-41542036D01*
X16483124Y-41590154D01*
X16312559Y-41699910D01*
X16167569Y-41912110D01*
X16116560Y-42164000D01*
X16116560Y-44196000D01*
X16160838Y-44431317D01*
X16299910Y-44647441D01*
X16448837Y-44749198D01*
X16222330Y-45088190D01*
X16096655Y-45720000D01*
X16222330Y-46351810D01*
X16520711Y-46798368D01*
X16312559Y-46932310D01*
X16167569Y-47144510D01*
X16116560Y-47396400D01*
X16116560Y-49123600D01*
X16160838Y-49358917D01*
X16299910Y-49575041D01*
X16512110Y-49720031D01*
X16553439Y-49728400D01*
X16535585Y-49740330D01*
X16210729Y-50226511D01*
X16096655Y-50800000D01*
X16210729Y-51373489D01*
X16535585Y-51859670D01*
X16850366Y-52070000D01*
X16535585Y-52280330D01*
X16210729Y-52766511D01*
X16096655Y-53340000D01*
X16210729Y-53913489D01*
X16535585Y-54399670D01*
X16850366Y-54610000D01*
X16535585Y-54820330D01*
X16210729Y-55306511D01*
X16096655Y-55880000D01*
X16210729Y-56453489D01*
X16535585Y-56939670D01*
X17021766Y-57264526D01*
X17595255Y-57378600D01*
X17964745Y-57378600D01*
X18538234Y-57264526D01*
X19024415Y-56939670D01*
X19141126Y-56765000D01*
X21730527Y-56765000D01*
X21817189Y-56894698D01*
X22282736Y-57205767D01*
X22831887Y-57315000D01*
X22888113Y-57315000D01*
X23437264Y-57205767D01*
X23902811Y-56894698D01*
X24213880Y-56429151D01*
X24323113Y-55880000D01*
X24213880Y-55330849D01*
X23902811Y-54865302D01*
X23520725Y-54610000D01*
X23902811Y-54354698D01*
X24213880Y-53889151D01*
X24323113Y-53340000D01*
X24213880Y-52790849D01*
X23902811Y-52325302D01*
X23520725Y-52070000D01*
X23902811Y-51814698D01*
X24213880Y-51349151D01*
X24323113Y-50800000D01*
X24213880Y-50250849D01*
X23902811Y-49785302D01*
X23520725Y-49530000D01*
X23902811Y-49274698D01*
X24213880Y-48809151D01*
X24294130Y-48405709D01*
X24515000Y-48626579D01*
X24515000Y-59194960D01*
X24282400Y-59194960D01*
X24047083Y-59239238D01*
X23830959Y-59378310D01*
X23685969Y-59590510D01*
X23634960Y-59842400D01*
X23634960Y-59957461D01*
X23588845Y-59911265D01*
X23116724Y-59715223D01*
X22605519Y-59714777D01*
X22133057Y-59909995D01*
X21771265Y-60271155D01*
X21575223Y-60743276D01*
X21574777Y-61254481D01*
X21769995Y-61726943D01*
X22131155Y-62088735D01*
X22435235Y-62215000D01*
X22083690Y-62215000D01*
X21850301Y-62311673D01*
X21671673Y-62490302D01*
X21575000Y-62723691D01*
X21575000Y-63214250D01*
X21733750Y-63373000D01*
X22733000Y-63373000D01*
X22733000Y-63353000D01*
X22987000Y-63353000D01*
X22987000Y-63373000D01*
X23986250Y-63373000D01*
X24080172Y-63279078D01*
X31722378Y-63279078D01*
X31751917Y-63789428D01*
X31890389Y-64123729D01*
X32120984Y-64179410D01*
X32840395Y-63460000D01*
X33199605Y-63460000D01*
X33919016Y-64179410D01*
X34149611Y-64123729D01*
X34317622Y-63640922D01*
X34288083Y-63130572D01*
X34149611Y-62796271D01*
X33919016Y-62740590D01*
X33199605Y-63460000D01*
X32840395Y-63460000D01*
X32120984Y-62740590D01*
X31890389Y-62796271D01*
X31722378Y-63279078D01*
X24080172Y-63279078D01*
X24145000Y-63214250D01*
X24145000Y-62723691D01*
X24133030Y-62694792D01*
X24282400Y-62725040D01*
X26517600Y-62725040D01*
X26752917Y-62680762D01*
X26969041Y-62541690D01*
X27114031Y-62329490D01*
X27165040Y-62077600D01*
X27165040Y-59842400D01*
X27120762Y-59607083D01*
X26981690Y-59390959D01*
X26769490Y-59245969D01*
X26517600Y-59194960D01*
X26285000Y-59194960D01*
X26285000Y-48260000D01*
X26217633Y-47921325D01*
X26025790Y-47634210D01*
X26025787Y-47634208D01*
X24288017Y-45896438D01*
X24323113Y-45720000D01*
X24213880Y-45170849D01*
X23902811Y-44705302D01*
X23520725Y-44450000D01*
X23902811Y-44194698D01*
X23989473Y-44065000D01*
X25033420Y-44065000D01*
X27055000Y-46086579D01*
X27055000Y-58419995D01*
X27054999Y-58420000D01*
X27111190Y-58702484D01*
X27122367Y-58758675D01*
X27314210Y-59045790D01*
X28714960Y-60446539D01*
X28714960Y-62077600D01*
X28759238Y-62312917D01*
X28898310Y-62529041D01*
X29110510Y-62674031D01*
X29362400Y-62725040D01*
X31597600Y-62725040D01*
X31832917Y-62680762D01*
X32049041Y-62541690D01*
X32194031Y-62329490D01*
X32214979Y-62226047D01*
X32370000Y-62257440D01*
X32532385Y-62257440D01*
X32356271Y-62330389D01*
X32300590Y-62560984D01*
X33020000Y-63280395D01*
X33739410Y-62560984D01*
X33683729Y-62330389D01*
X33474098Y-62257440D01*
X33670000Y-62257440D01*
X33905317Y-62213162D01*
X34121441Y-62074090D01*
X34266431Y-61861890D01*
X34317440Y-61610000D01*
X34317440Y-60310000D01*
X34273162Y-60074683D01*
X34134090Y-59858559D01*
X33921890Y-59713569D01*
X33670000Y-59662560D01*
X32370000Y-59662560D01*
X32216631Y-59691418D01*
X32200762Y-59607083D01*
X32061690Y-59390959D01*
X31849490Y-59245969D01*
X31597600Y-59194960D01*
X29966539Y-59194960D01*
X28825000Y-58053420D01*
X28825000Y-45720000D01*
X28757633Y-45381325D01*
X28565790Y-45094210D01*
X28565787Y-45094208D01*
X26025790Y-42554210D01*
X25738675Y-42362367D01*
X25682484Y-42351190D01*
X25400000Y-42294999D01*
X25399995Y-42295000D01*
X23989473Y-42295000D01*
X23902811Y-42165302D01*
X23498297Y-41895014D01*
X23715134Y-41792389D01*
X24091041Y-41377423D01*
X24251904Y-40989039D01*
X24129915Y-40767000D01*
X22987000Y-40767000D01*
X22987000Y-40787000D01*
X22733000Y-40787000D01*
X22733000Y-40767000D01*
X21590085Y-40767000D01*
X21468096Y-40989039D01*
X21628959Y-41377423D01*
X22004866Y-41792389D01*
X22221703Y-41895014D01*
X21817189Y-42165302D01*
X21730527Y-42295000D01*
X19443440Y-42295000D01*
X19443440Y-42164000D01*
X19399162Y-41928683D01*
X19260090Y-41712559D01*
X19078639Y-41588579D01*
X19130732Y-41542036D01*
X19384709Y-41014791D01*
X19387358Y-40999026D01*
X19266217Y-40767000D01*
X17907000Y-40767000D01*
X17907000Y-40787000D01*
X17653000Y-40787000D01*
X17653000Y-40767000D01*
X17633000Y-40767000D01*
X17633000Y-40513000D01*
X17653000Y-40513000D01*
X17653000Y-40493000D01*
X17907000Y-40493000D01*
X17907000Y-40513000D01*
X19266217Y-40513000D01*
X19387358Y-40280974D01*
X19384709Y-40265209D01*
X19130732Y-39737964D01*
X18714931Y-39366461D01*
X19024415Y-39159670D01*
X19141126Y-38985000D01*
X21730527Y-38985000D01*
X21817189Y-39114698D01*
X22221703Y-39384986D01*
X22004866Y-39487611D01*
X21628959Y-39902577D01*
X21468096Y-40290961D01*
X21590085Y-40513000D01*
X22733000Y-40513000D01*
X22733000Y-40493000D01*
X22987000Y-40493000D01*
X22987000Y-40513000D01*
X24129915Y-40513000D01*
X24251904Y-40290961D01*
X24091041Y-39902577D01*
X23715134Y-39487611D01*
X23498297Y-39384986D01*
X23902811Y-39114698D01*
X23989473Y-38985000D01*
X25033420Y-38985000D01*
X29051983Y-43003562D01*
X29016887Y-43180000D01*
X29126120Y-43729151D01*
X29437189Y-44194698D01*
X29819275Y-44450000D01*
X29437189Y-44705302D01*
X29126120Y-45170849D01*
X29016887Y-45720000D01*
X29126120Y-46269151D01*
X29437189Y-46734698D01*
X29819275Y-46990000D01*
X29437189Y-47245302D01*
X29126120Y-47710849D01*
X29016887Y-48260000D01*
X29126120Y-48809151D01*
X29437189Y-49274698D01*
X29819275Y-49530000D01*
X29437189Y-49785302D01*
X29126120Y-50250849D01*
X29016887Y-50800000D01*
X29126120Y-51349151D01*
X29437189Y-51814698D01*
X29819275Y-52070000D01*
X29437189Y-52325302D01*
X29126120Y-52790849D01*
X29016887Y-53340000D01*
X29126120Y-53889151D01*
X29437189Y-54354698D01*
X29819275Y-54610000D01*
X29437189Y-54865302D01*
X29126120Y-55330849D01*
X29016887Y-55880000D01*
X29126120Y-56429151D01*
X29437189Y-56894698D01*
X29902736Y-57205767D01*
X30451887Y-57315000D01*
X30508113Y-57315000D01*
X31057264Y-57205767D01*
X31522811Y-56894698D01*
X31609473Y-56765000D01*
X33896560Y-56765000D01*
X33896560Y-56896000D01*
X33940838Y-57131317D01*
X34079910Y-57347441D01*
X34292110Y-57492431D01*
X34544000Y-57543440D01*
X36576000Y-57543440D01*
X36811317Y-57499162D01*
X37027441Y-57360090D01*
X37172431Y-57147890D01*
X37223440Y-56896000D01*
X37223440Y-54864000D01*
X37179162Y-54628683D01*
X37040090Y-54412559D01*
X36891163Y-54310802D01*
X37117670Y-53971810D01*
X37243345Y-53340000D01*
X37117670Y-52708190D01*
X36819289Y-52261632D01*
X37027441Y-52127690D01*
X37172431Y-51915490D01*
X37223440Y-51663600D01*
X37223440Y-50388140D01*
X39906887Y-47704692D01*
X39906890Y-47704690D01*
X40098733Y-47417575D01*
X40107202Y-47375000D01*
X40166101Y-47078900D01*
X40166100Y-47078895D01*
X40166100Y-15392400D01*
X40098733Y-15053725D01*
X39906890Y-14766610D01*
X39906887Y-14766608D01*
X37468490Y-12328210D01*
X37181375Y-12136367D01*
X37125184Y-12125190D01*
X36842700Y-12068999D01*
X36842695Y-12069000D01*
X32194505Y-12069000D01*
X32194500Y-12068999D01*
X31855825Y-12136367D01*
X31568710Y-12328210D01*
X31568708Y-12328213D01*
X30111600Y-13785320D01*
X29906511Y-13826115D01*
X29420330Y-14150971D01*
X29204336Y-14474228D01*
X29146821Y-14351510D01*
X28714947Y-13957312D01*
X28299026Y-13785042D01*
X28067000Y-13906183D01*
X28067000Y-15113000D01*
X28087000Y-15113000D01*
X28087000Y-15367000D01*
X28067000Y-15367000D01*
X28067000Y-15387000D01*
X27813000Y-15387000D01*
X27813000Y-15367000D01*
X26605531Y-15367000D01*
X26485032Y-15599027D01*
X26733179Y-16128490D01*
X27151161Y-16510008D01*
X26880330Y-16690971D01*
X26555474Y-17177152D01*
X26441400Y-17750641D01*
X26441400Y-17809359D01*
X26477512Y-17990908D01*
X23017653Y-21450767D01*
X22888113Y-21425000D01*
X22831887Y-21425000D01*
X22282736Y-21534233D01*
X21817189Y-21845302D01*
X21730527Y-21975000D01*
X19439413Y-21975000D01*
X19399162Y-21761083D01*
X19260090Y-21544959D01*
X19047890Y-21399969D01*
X18796000Y-21348960D01*
X16764000Y-21348960D01*
X16528683Y-21393238D01*
X16312559Y-21532310D01*
X16292081Y-21562280D01*
X16167073Y-21437054D01*
X15566547Y-21187694D01*
X14916306Y-21187126D01*
X14315345Y-21435438D01*
X14044740Y-21705571D01*
X14044740Y-19393720D01*
X14272985Y-19165474D01*
X14312927Y-19205486D01*
X14913453Y-19454846D01*
X15563694Y-19455414D01*
X16164655Y-19207102D01*
X16624846Y-18747713D01*
X16642316Y-18705640D01*
X17739355Y-18705640D01*
X17739360Y-18705641D01*
X18021844Y-18649450D01*
X18078035Y-18638273D01*
X18365150Y-18446430D01*
X18365151Y-18446429D01*
X19908139Y-16903440D01*
X20608742Y-16903440D01*
X20608742Y-17268034D01*
X20569087Y-17284419D01*
X20108896Y-17743808D01*
X19859536Y-18344334D01*
X19858968Y-18994575D01*
X20107280Y-19595536D01*
X20566669Y-20055727D01*
X21167195Y-20305087D01*
X21817436Y-20305655D01*
X22418397Y-20057343D01*
X22878588Y-19597954D01*
X23127948Y-18997428D01*
X23128516Y-18347187D01*
X22880204Y-17746226D01*
X22420815Y-17286035D01*
X22378742Y-17268565D01*
X22378742Y-16805254D01*
X22477056Y-16845975D01*
X22733000Y-16726836D01*
X22733000Y-15367000D01*
X22987000Y-15367000D01*
X22987000Y-16726836D01*
X23242944Y-16845975D01*
X23724818Y-16646385D01*
X24197188Y-16208379D01*
X24465983Y-15622946D01*
X24347367Y-15367000D01*
X22987000Y-15367000D01*
X22733000Y-15367000D01*
X22713000Y-15367000D01*
X22713000Y-15113000D01*
X22733000Y-15113000D01*
X22733000Y-13753164D01*
X22987000Y-13753164D01*
X22987000Y-15113000D01*
X24347367Y-15113000D01*
X24454897Y-14880973D01*
X26485032Y-14880973D01*
X26605531Y-15113000D01*
X27813000Y-15113000D01*
X27813000Y-13906183D01*
X27580974Y-13785042D01*
X27165053Y-13957312D01*
X26733179Y-14351510D01*
X26485032Y-14880973D01*
X24454897Y-14880973D01*
X24465983Y-14857054D01*
X24197188Y-14271621D01*
X23724818Y-13833615D01*
X23242944Y-13634025D01*
X22987000Y-13753164D01*
X22733000Y-13753164D01*
X22477056Y-13634025D01*
X21995182Y-13833615D01*
X21897602Y-13924097D01*
X21800090Y-13772559D01*
X21587890Y-13627569D01*
X21336000Y-13576560D01*
X19304000Y-13576560D01*
X19068683Y-13620838D01*
X18852559Y-13759910D01*
X18707569Y-13972110D01*
X18656560Y-14224000D01*
X18656560Y-15651861D01*
X17372780Y-16935640D01*
X16642847Y-16935640D01*
X16626462Y-16895985D01*
X16167073Y-16435794D01*
X15566547Y-16186434D01*
X14916306Y-16185866D01*
X14315345Y-16434178D01*
X13855154Y-16893567D01*
X13722665Y-17212636D01*
X12533950Y-18401350D01*
X12342107Y-18688465D01*
X12330930Y-18744656D01*
X12274739Y-19027140D01*
X12024360Y-19027140D01*
X12024360Y-14182877D01*
X14970158Y-14182877D01*
X15241053Y-14774002D01*
X15717541Y-15216463D01*
X16206121Y-15418840D01*
X16464499Y-15299903D01*
X16464499Y-13924499D01*
X16718499Y-13924499D01*
X16718499Y-15299903D01*
X16976877Y-15418840D01*
X17568002Y-15147945D01*
X18010463Y-14671457D01*
X18212840Y-14182877D01*
X18093903Y-13924499D01*
X16718499Y-13924499D01*
X16464499Y-13924499D01*
X15089095Y-13924499D01*
X14970158Y-14182877D01*
X12024360Y-14182877D01*
X12024360Y-13412121D01*
X14970158Y-13412121D01*
X15089095Y-13670499D01*
X16464499Y-13670499D01*
X16464499Y-12295095D01*
X16718499Y-12295095D01*
X16718499Y-13670499D01*
X18093903Y-13670499D01*
X18212840Y-13412121D01*
X17941945Y-12820996D01*
X17465457Y-12378535D01*
X16976877Y-12176158D01*
X16718499Y-12295095D01*
X16464499Y-12295095D01*
X16206121Y-12176158D01*
X15614996Y-12447053D01*
X15172535Y-12923541D01*
X14970158Y-13412121D01*
X12024360Y-13412121D01*
X12024360Y-12019240D01*
X41107360Y-12004106D01*
X41107360Y-65712340D01*
G36*
X29420330Y-18869029D02*
X29595000Y-18985740D01*
X29595000Y-20782275D01*
X29594999Y-20782280D01*
X29651190Y-21064764D01*
X29662367Y-21120955D01*
X29854210Y-21408070D01*
X30010844Y-21512729D01*
X29902736Y-21534233D01*
X29437189Y-21845302D01*
X29126120Y-22310849D01*
X29016887Y-22860000D01*
X29126120Y-23409151D01*
X29437189Y-23874698D01*
X29819275Y-24130000D01*
X29437189Y-24385302D01*
X29126120Y-24850849D01*
X29016887Y-25400000D01*
X29126120Y-25949151D01*
X29437189Y-26414698D01*
X29819275Y-26670000D01*
X29437189Y-26925302D01*
X29126120Y-27390849D01*
X29016887Y-27940000D01*
X29126120Y-28489151D01*
X29437189Y-28954698D01*
X29819275Y-29210000D01*
X29437189Y-29465302D01*
X29126120Y-29930849D01*
X29016887Y-30480000D01*
X29126120Y-31029151D01*
X29437189Y-31494698D01*
X29819275Y-31750000D01*
X29437189Y-32005302D01*
X29126120Y-32470849D01*
X29016887Y-33020000D01*
X29126120Y-33569151D01*
X29437189Y-34034698D01*
X29819275Y-34290000D01*
X29437189Y-34545302D01*
X29126120Y-35010849D01*
X29016887Y-35560000D01*
X29126120Y-36109151D01*
X29437189Y-36574698D01*
X29841703Y-36844986D01*
X29624866Y-36947611D01*
X29248959Y-37362577D01*
X29088096Y-37750961D01*
X29210085Y-37973000D01*
X30353000Y-37973000D01*
X30353000Y-37953000D01*
X30607000Y-37953000D01*
X30607000Y-37973000D01*
X31749915Y-37973000D01*
X31871904Y-37750961D01*
X31711041Y-37362577D01*
X31335134Y-36947611D01*
X31118297Y-36844986D01*
X31522811Y-36574698D01*
X31609473Y-36445000D01*
X33900587Y-36445000D01*
X33940838Y-36658917D01*
X34079910Y-36875041D01*
X34292110Y-37020031D01*
X34386927Y-37039232D01*
X34209268Y-37197964D01*
X33955291Y-37725209D01*
X33952642Y-37740974D01*
X34073783Y-37973000D01*
X35433000Y-37973000D01*
X35433000Y-37953000D01*
X35687000Y-37953000D01*
X35687000Y-37973000D01*
X35707000Y-37973000D01*
X35707000Y-38227000D01*
X35687000Y-38227000D01*
X35687000Y-38247000D01*
X35433000Y-38247000D01*
X35433000Y-38227000D01*
X34073783Y-38227000D01*
X33952642Y-38459026D01*
X33955291Y-38474791D01*
X34209268Y-39002036D01*
X34625069Y-39373539D01*
X34315585Y-39580330D01*
X34198874Y-39755000D01*
X31609473Y-39755000D01*
X31522811Y-39625302D01*
X31118297Y-39355014D01*
X31335134Y-39252389D01*
X31711041Y-38837423D01*
X31871904Y-38449039D01*
X31749915Y-38227000D01*
X30607000Y-38227000D01*
X30607000Y-38247000D01*
X30353000Y-38247000D01*
X30353000Y-38227000D01*
X29210085Y-38227000D01*
X29088096Y-38449039D01*
X29248959Y-38837423D01*
X29624866Y-39252389D01*
X29841703Y-39355014D01*
X29437189Y-39625302D01*
X29126120Y-40090849D01*
X29045870Y-40494291D01*
X26025790Y-37474210D01*
X25858718Y-37362577D01*
X25738675Y-37282367D01*
X25682484Y-37271190D01*
X25400000Y-37214999D01*
X25399995Y-37215000D01*
X23989473Y-37215000D01*
X23902811Y-37085302D01*
X23520725Y-36830000D01*
X23902811Y-36574698D01*
X24213880Y-36109151D01*
X24323113Y-35560000D01*
X24213880Y-35010849D01*
X23902811Y-34545302D01*
X23520725Y-34290000D01*
X23902811Y-34034698D01*
X24213880Y-33569151D01*
X24323113Y-33020000D01*
X24213880Y-32470849D01*
X23902811Y-32005302D01*
X23520725Y-31750000D01*
X23902811Y-31494698D01*
X24213880Y-31029151D01*
X24323113Y-30480000D01*
X24213880Y-29930849D01*
X23902811Y-29465302D01*
X23520725Y-29210000D01*
X23902811Y-28954698D01*
X24213880Y-28489151D01*
X24323113Y-27940000D01*
X24213880Y-27390849D01*
X23902811Y-26925302D01*
X23520725Y-26670000D01*
X23902811Y-26414698D01*
X24213880Y-25949151D01*
X24323113Y-25400000D01*
X24213880Y-24850849D01*
X24172874Y-24789479D01*
X25576760Y-24789479D01*
X25847655Y-25380604D01*
X26324143Y-25823065D01*
X26812723Y-26025442D01*
X27071101Y-25906505D01*
X27071101Y-24531101D01*
X27325101Y-24531101D01*
X27325101Y-25906505D01*
X27583479Y-26025442D01*
X28174604Y-25754547D01*
X28617065Y-25278059D01*
X28819442Y-24789479D01*
X28700505Y-24531101D01*
X27325101Y-24531101D01*
X27071101Y-24531101D01*
X25695697Y-24531101D01*
X25576760Y-24789479D01*
X24172874Y-24789479D01*
X23902811Y-24385302D01*
X23520725Y-24130000D01*
X23687262Y-24018723D01*
X25576760Y-24018723D01*
X25695697Y-24277101D01*
X27071101Y-24277101D01*
X27071101Y-22901697D01*
X27325101Y-22901697D01*
X27325101Y-24277101D01*
X28700505Y-24277101D01*
X28819442Y-24018723D01*
X28548547Y-23427598D01*
X28072059Y-22985137D01*
X27583479Y-22782760D01*
X27325101Y-22901697D01*
X27071101Y-22901697D01*
X26812723Y-22782760D01*
X26221598Y-23053655D01*
X25779137Y-23530143D01*
X25576760Y-24018723D01*
X23687262Y-24018723D01*
X23902811Y-23874698D01*
X24213880Y-23409151D01*
X24323113Y-22860000D01*
X24288017Y-22683562D01*
X27709475Y-19262105D01*
X27940000Y-19307959D01*
X28513489Y-19193885D01*
X28999670Y-18869029D01*
X29210000Y-18554248D01*
X29420330Y-18869029D01*
X29420330Y-18869029D01*
G37*
X29420330Y-18869029D02*
X29595000Y-18985740D01*
X29595000Y-20782275D01*
X29594999Y-20782280D01*
X29651190Y-21064764D01*
X29662367Y-21120955D01*
X29854210Y-21408070D01*
X30010844Y-21512729D01*
X29902736Y-21534233D01*
X29437189Y-21845302D01*
X29126120Y-22310849D01*
X29016887Y-22860000D01*
X29126120Y-23409151D01*
X29437189Y-23874698D01*
X29819275Y-24130000D01*
X29437189Y-24385302D01*
X29126120Y-24850849D01*
X29016887Y-25400000D01*
X29126120Y-25949151D01*
X29437189Y-26414698D01*
X29819275Y-26670000D01*
X29437189Y-26925302D01*
X29126120Y-27390849D01*
X29016887Y-27940000D01*
X29126120Y-28489151D01*
X29437189Y-28954698D01*
X29819275Y-29210000D01*
X29437189Y-29465302D01*
X29126120Y-29930849D01*
X29016887Y-30480000D01*
X29126120Y-31029151D01*
X29437189Y-31494698D01*
X29819275Y-31750000D01*
X29437189Y-32005302D01*
X29126120Y-32470849D01*
X29016887Y-33020000D01*
X29126120Y-33569151D01*
X29437189Y-34034698D01*
X29819275Y-34290000D01*
X29437189Y-34545302D01*
X29126120Y-35010849D01*
X29016887Y-35560000D01*
X29126120Y-36109151D01*
X29437189Y-36574698D01*
X29841703Y-36844986D01*
X29624866Y-36947611D01*
X29248959Y-37362577D01*
X29088096Y-37750961D01*
X29210085Y-37973000D01*
X30353000Y-37973000D01*
X30353000Y-37953000D01*
X30607000Y-37953000D01*
X30607000Y-37973000D01*
X31749915Y-37973000D01*
X31871904Y-37750961D01*
X31711041Y-37362577D01*
X31335134Y-36947611D01*
X31118297Y-36844986D01*
X31522811Y-36574698D01*
X31609473Y-36445000D01*
X33900587Y-36445000D01*
X33940838Y-36658917D01*
X34079910Y-36875041D01*
X34292110Y-37020031D01*
X34386927Y-37039232D01*
X34209268Y-37197964D01*
X33955291Y-37725209D01*
X33952642Y-37740974D01*
X34073783Y-37973000D01*
X35433000Y-37973000D01*
X35433000Y-37953000D01*
X35687000Y-37953000D01*
X35687000Y-37973000D01*
X35707000Y-37973000D01*
X35707000Y-38227000D01*
X35687000Y-38227000D01*
X35687000Y-38247000D01*
X35433000Y-38247000D01*
X35433000Y-38227000D01*
X34073783Y-38227000D01*
X33952642Y-38459026D01*
X33955291Y-38474791D01*
X34209268Y-39002036D01*
X34625069Y-39373539D01*
X34315585Y-39580330D01*
X34198874Y-39755000D01*
X31609473Y-39755000D01*
X31522811Y-39625302D01*
X31118297Y-39355014D01*
X31335134Y-39252389D01*
X31711041Y-38837423D01*
X31871904Y-38449039D01*
X31749915Y-38227000D01*
X30607000Y-38227000D01*
X30607000Y-38247000D01*
X30353000Y-38247000D01*
X30353000Y-38227000D01*
X29210085Y-38227000D01*
X29088096Y-38449039D01*
X29248959Y-38837423D01*
X29624866Y-39252389D01*
X29841703Y-39355014D01*
X29437189Y-39625302D01*
X29126120Y-40090849D01*
X29045870Y-40494291D01*
X26025790Y-37474210D01*
X25858718Y-37362577D01*
X25738675Y-37282367D01*
X25682484Y-37271190D01*
X25400000Y-37214999D01*
X25399995Y-37215000D01*
X23989473Y-37215000D01*
X23902811Y-37085302D01*
X23520725Y-36830000D01*
X23902811Y-36574698D01*
X24213880Y-36109151D01*
X24323113Y-35560000D01*
X24213880Y-35010849D01*
X23902811Y-34545302D01*
X23520725Y-34290000D01*
X23902811Y-34034698D01*
X24213880Y-33569151D01*
X24323113Y-33020000D01*
X24213880Y-32470849D01*
X23902811Y-32005302D01*
X23520725Y-31750000D01*
X23902811Y-31494698D01*
X24213880Y-31029151D01*
X24323113Y-30480000D01*
X24213880Y-29930849D01*
X23902811Y-29465302D01*
X23520725Y-29210000D01*
X23902811Y-28954698D01*
X24213880Y-28489151D01*
X24323113Y-27940000D01*
X24213880Y-27390849D01*
X23902811Y-26925302D01*
X23520725Y-26670000D01*
X23902811Y-26414698D01*
X24213880Y-25949151D01*
X24323113Y-25400000D01*
X24213880Y-24850849D01*
X24172874Y-24789479D01*
X25576760Y-24789479D01*
X25847655Y-25380604D01*
X26324143Y-25823065D01*
X26812723Y-26025442D01*
X27071101Y-25906505D01*
X27071101Y-24531101D01*
X27325101Y-24531101D01*
X27325101Y-25906505D01*
X27583479Y-26025442D01*
X28174604Y-25754547D01*
X28617065Y-25278059D01*
X28819442Y-24789479D01*
X28700505Y-24531101D01*
X27325101Y-24531101D01*
X27071101Y-24531101D01*
X25695697Y-24531101D01*
X25576760Y-24789479D01*
X24172874Y-24789479D01*
X23902811Y-24385302D01*
X23520725Y-24130000D01*
X23687262Y-24018723D01*
X25576760Y-24018723D01*
X25695697Y-24277101D01*
X27071101Y-24277101D01*
X27071101Y-22901697D01*
X27325101Y-22901697D01*
X27325101Y-24277101D01*
X28700505Y-24277101D01*
X28819442Y-24018723D01*
X28548547Y-23427598D01*
X28072059Y-22985137D01*
X27583479Y-22782760D01*
X27325101Y-22901697D01*
X27071101Y-22901697D01*
X26812723Y-22782760D01*
X26221598Y-23053655D01*
X25779137Y-23530143D01*
X25576760Y-24018723D01*
X23687262Y-24018723D01*
X23902811Y-23874698D01*
X24213880Y-23409151D01*
X24323113Y-22860000D01*
X24288017Y-22683562D01*
X27709475Y-19262105D01*
X27940000Y-19307959D01*
X28513489Y-19193885D01*
X28999670Y-18869029D01*
X29210000Y-18554248D01*
X29420330Y-18869029D01*
M02*
