M48
;DRILL file {KiCad 4.0.0-1rc2.201511201506+6189~38~ubuntu15.04.1-stable} date Sa 23 Jan 2016 11:32:27 CET
;FORMAT={-:-/ absolute / metric / decimal}
FMAT,2
METRIC,TZ
T1C0.800
T2C0.800
T3C1.001
T4C1.016
%
G90
G05
M71
T1
X14.055Y-34.9
X16.595Y-55.22
X16.595Y-67.92
X19.135Y-19.66
X19.135Y-22.2
X19.135Y-24.74
X19.135Y-27.28
X19.135Y-29.82
X19.135Y-32.36
X19.135Y-34.9
X19.135Y-37.44
X19.135Y-39.98
X19.135Y-42.52
X19.135Y-45.06
X19.135Y-47.6
X19.135Y-50.14
X19.135Y-52.68
X26.755Y-19.66
X26.755Y-22.2
X26.755Y-24.74
X26.755Y-27.28
X26.755Y-29.82
X26.755Y-32.36
X26.755Y-34.9
X26.755Y-37.44
X26.755Y-39.98
X26.755Y-42.52
X26.755Y-45.06
X26.755Y-47.6
X26.755Y-50.14
X26.755Y-52.68
T2
X14.055Y-37.4
X16.595Y-57.72
X16.595Y-70.42
T3
X14.126Y-15.825
X19.127Y-15.825
T4
X16.595Y-19.66
X16.595Y-22.2
X16.595Y-24.74
X16.595Y-27.28
X16.595Y-29.82
X16.595Y-32.36
X16.595Y-34.9
X16.595Y-37.44
X16.595Y-39.98
X16.595Y-42.52
X16.595Y-45.06
X16.595Y-47.6
X16.595Y-50.14
X16.595Y-52.68
X16.595Y-60.3
X16.595Y-65.38
X21.675Y-60.3
X21.675Y-62.84
X21.675Y-65.38
X24.215Y-60.3
X24.215Y-62.84
X24.215Y-65.38
X26.755Y-60.3
X29.295Y-19.66
X29.295Y-22.2
X29.295Y-24.74
X29.295Y-27.28
X29.295Y-29.82
X29.295Y-32.36
X29.295Y-34.9
X29.295Y-37.44
X29.295Y-39.98
X29.295Y-42.52
X29.295Y-45.06
X29.295Y-47.6
X29.295Y-50.14
X29.295Y-52.68
T0
M30
