G04 #@! TF.FileFunction,Copper,L1,Top,Signal*
%FSLAX46Y46*%
G04 Gerber Fmt 4.6, Leading zero omitted, Abs format (unit mm)*
G04 Created by KiCad (PCBNEW 4.0.0-1rc2.201511201506+6189~38~ubuntu15.04.1-stable) date Sa 23 Jan 2016 11:45:29 CET*
%MOMM*%
G01*
G04 APERTURE LIST*
%ADD10C,0.300000*%
%ADD11R,1.300000X1.300000*%
%ADD12C,1.300000*%
%ADD13O,1.600000X1.600000*%
%ADD14R,2.032000X1.727200*%
%ADD15O,2.032000X1.727200*%
%ADD16R,2.032000X2.032000*%
%ADD17O,2.032000X2.032000*%
%ADD18R,1.727200X1.727200*%
%ADD19O,1.727200X1.727200*%
%ADD20C,1.998980*%
%ADD21R,2.235200X2.235200*%
%ADD22C,1.000000*%
%ADD23C,0.500000*%
%ADD24C,0.254000*%
G04 APERTURE END LIST*
D10*
D11*
X14055000Y-34900000D03*
D12*
X14055000Y-37400000D03*
D11*
X16595000Y-67920000D03*
D12*
X16595000Y-70420000D03*
D11*
X16595000Y-55220000D03*
D12*
X16595000Y-57720000D03*
D13*
X19135000Y-19660000D03*
X19135000Y-22200000D03*
X19135000Y-24740000D03*
X19135000Y-27280000D03*
X19135000Y-29820000D03*
X19135000Y-32360000D03*
X19135000Y-34900000D03*
X19135000Y-37440000D03*
X19135000Y-39980000D03*
X19135000Y-42520000D03*
X19135000Y-45060000D03*
X19135000Y-47600000D03*
X19135000Y-50140000D03*
X19135000Y-52680000D03*
X26755000Y-52680000D03*
X26755000Y-50140000D03*
X26755000Y-47600000D03*
X26755000Y-45060000D03*
X26755000Y-42520000D03*
X26755000Y-39980000D03*
X26755000Y-37440000D03*
X26755000Y-34900000D03*
X26755000Y-32360000D03*
X26755000Y-29820000D03*
X26755000Y-27280000D03*
X26755000Y-24740000D03*
X26755000Y-22200000D03*
X26755000Y-19660000D03*
D14*
X16595000Y-19660000D03*
D15*
X16595000Y-22200000D03*
X16595000Y-24740000D03*
X16595000Y-27280000D03*
D16*
X16595000Y-39980000D03*
D17*
X16595000Y-42520000D03*
D14*
X16595000Y-45060000D03*
D15*
X16595000Y-47600000D03*
X16595000Y-50140000D03*
X16595000Y-52680000D03*
D14*
X16595000Y-29820000D03*
D15*
X16595000Y-32360000D03*
X16595000Y-34900000D03*
X16595000Y-37440000D03*
D18*
X24215000Y-65380000D03*
D19*
X21675000Y-65380000D03*
X24215000Y-62840000D03*
X21675000Y-62840000D03*
X24215000Y-60300000D03*
X21675000Y-60300000D03*
D20*
X14125640Y-15825000D03*
X19126900Y-15825000D03*
D14*
X29295000Y-32360000D03*
D15*
X29295000Y-29820000D03*
X29295000Y-27280000D03*
X29295000Y-24740000D03*
X29295000Y-22200000D03*
X29295000Y-19660000D03*
D16*
X29295000Y-52680000D03*
D17*
X29295000Y-50140000D03*
D14*
X29295000Y-47600000D03*
D15*
X29295000Y-45060000D03*
X29295000Y-42520000D03*
X29295000Y-39980000D03*
X29295000Y-37440000D03*
X29295000Y-34900000D03*
D21*
X16595000Y-60300000D03*
X16595000Y-65380000D03*
X26755000Y-60300000D03*
D22*
X24215000Y-60300000D02*
X26755000Y-60300000D01*
X26755000Y-39980000D02*
X29295000Y-39980000D01*
X14125640Y-15825000D02*
X14600000Y-15825000D01*
X14600000Y-15825000D02*
X17000000Y-13425000D01*
X25380000Y-39980000D02*
X26755000Y-39980000D01*
X24600000Y-39200000D02*
X25380000Y-39980000D01*
X24600000Y-16750000D02*
X24600000Y-39200000D01*
X21275000Y-13425000D02*
X24600000Y-16750000D01*
X17000000Y-13425000D02*
X21275000Y-13425000D01*
X16595000Y-34900000D02*
X19135000Y-34900000D01*
X14055000Y-34900000D02*
X16595000Y-34900000D01*
X14125640Y-15825000D02*
X14125640Y-34829360D01*
D23*
X14125640Y-34829360D02*
X14055000Y-34900000D01*
D22*
X26755000Y-34900000D02*
X29295000Y-34900000D01*
X16595000Y-37440000D02*
X19135000Y-37440000D01*
X14055000Y-37400000D02*
X16555000Y-37400000D01*
X16555000Y-37400000D02*
X16595000Y-37440000D01*
D23*
X16555000Y-37400000D02*
X16595000Y-37440000D01*
X16595000Y-65380000D02*
X15855000Y-65380000D01*
X15855000Y-65380000D02*
X13275000Y-62800000D01*
X14545000Y-39980000D02*
X16595000Y-39980000D01*
X13275000Y-41250000D02*
X14545000Y-39980000D01*
X13275000Y-62800000D02*
X13275000Y-41250000D01*
X16595000Y-67920000D02*
X16595000Y-65380000D01*
X16595000Y-39980000D02*
X19135000Y-39980000D01*
X16595000Y-57720000D02*
X15945000Y-57720000D01*
X15945000Y-57720000D02*
X14350000Y-56125000D01*
X14855000Y-42520000D02*
X16595000Y-42520000D01*
X14350000Y-43025000D02*
X14855000Y-42520000D01*
X14350000Y-56125000D02*
X14350000Y-43025000D01*
X16595000Y-60300000D02*
X16595000Y-57720000D01*
X16595000Y-42520000D02*
X19135000Y-42520000D01*
X21675000Y-65380000D02*
X20730000Y-65380000D01*
X22075000Y-22350000D02*
X19385000Y-19660000D01*
X22075000Y-43525000D02*
X22075000Y-22350000D01*
X22075000Y-55025000D02*
X22075000Y-43525000D01*
X19000000Y-58100000D02*
X22075000Y-55025000D01*
X19000000Y-63650000D02*
X19000000Y-58100000D01*
X20730000Y-65380000D02*
X19000000Y-63650000D01*
X19385000Y-19660000D02*
X19135000Y-19660000D01*
X21675000Y-65380000D02*
X21675000Y-65275000D01*
X21675000Y-65380000D02*
X21280000Y-65380000D01*
X19135000Y-19885000D02*
X19135000Y-19660000D01*
X19126900Y-15825000D02*
X19126900Y-19651900D01*
X19126900Y-19651900D02*
X19135000Y-19660000D01*
X16595000Y-19660000D02*
X19135000Y-19660000D01*
X16595000Y-22200000D02*
X19135000Y-22200000D01*
X16595000Y-24740000D02*
X19135000Y-24740000D01*
X16595000Y-27280000D02*
X19135000Y-27280000D01*
X16595000Y-29820000D02*
X19135000Y-29820000D01*
X16595000Y-32360000D02*
X19135000Y-32360000D01*
X16595000Y-45060000D02*
X19135000Y-45060000D01*
X16595000Y-47600000D02*
X19135000Y-47600000D01*
X16595000Y-50140000D02*
X19135000Y-50140000D01*
X16595000Y-52680000D02*
X19135000Y-52680000D01*
X26755000Y-52680000D02*
X29295000Y-52680000D01*
X26755000Y-50140000D02*
X29295000Y-50140000D01*
X24215000Y-62840000D02*
X28885000Y-62840000D01*
X24925000Y-49430000D02*
X26755000Y-47600000D01*
X24925000Y-56075000D02*
X24925000Y-49430000D01*
X25800000Y-56950000D02*
X24925000Y-56075000D01*
X28300000Y-56950000D02*
X25800000Y-56950000D01*
X29450000Y-58100000D02*
X28300000Y-56950000D01*
X29450000Y-62275000D02*
X29450000Y-58100000D01*
X28885000Y-62840000D02*
X29450000Y-62275000D01*
X26755000Y-47600000D02*
X29295000Y-47600000D01*
X21675000Y-60300000D02*
X21675000Y-58425000D01*
X24000000Y-47815000D02*
X26755000Y-45060000D01*
X24000000Y-56100000D02*
X24000000Y-47815000D01*
X21675000Y-58425000D02*
X24000000Y-56100000D01*
X26755000Y-45060000D02*
X29295000Y-45060000D01*
X21675000Y-62840000D02*
X20965000Y-62840000D01*
X20965000Y-62840000D02*
X19925000Y-61800000D01*
X23075000Y-46200000D02*
X26755000Y-42520000D01*
X23075000Y-55675000D02*
X23075000Y-46200000D01*
X19925000Y-58825000D02*
X23075000Y-55675000D01*
X19925000Y-61800000D02*
X19925000Y-58825000D01*
X21675000Y-62840000D02*
X20990000Y-62840000D01*
X26755000Y-42520000D02*
X29295000Y-42520000D01*
X26755000Y-37440000D02*
X29295000Y-37440000D01*
X26755000Y-32360000D02*
X29295000Y-32360000D01*
X26755000Y-29820000D02*
X29295000Y-29820000D01*
X26755000Y-27280000D02*
X29295000Y-27280000D01*
X26755000Y-24740000D02*
X29295000Y-24740000D01*
X26755000Y-22200000D02*
X29295000Y-22200000D01*
X26755000Y-19660000D02*
X29295000Y-19660000D01*
D24*
G36*
X31848000Y-73048000D02*
X12027000Y-73048000D01*
X12027000Y-71319016D01*
X15875590Y-71319016D01*
X15931271Y-71549611D01*
X16414078Y-71717622D01*
X16924428Y-71688083D01*
X17258729Y-71549611D01*
X17314410Y-71319016D01*
X16595000Y-70599605D01*
X15875590Y-71319016D01*
X12027000Y-71319016D01*
X12027000Y-70239078D01*
X15297378Y-70239078D01*
X15326917Y-70749428D01*
X15465389Y-71083729D01*
X15695984Y-71139410D01*
X16415395Y-70420000D01*
X16774605Y-70420000D01*
X17494016Y-71139410D01*
X17724611Y-71083729D01*
X17892622Y-70600922D01*
X17863083Y-70090572D01*
X17724611Y-69756271D01*
X17494016Y-69700590D01*
X16774605Y-70420000D01*
X16415395Y-70420000D01*
X15695984Y-69700590D01*
X15465389Y-69756271D01*
X15297378Y-70239078D01*
X12027000Y-70239078D01*
X12027000Y-41250000D01*
X12389999Y-41250000D01*
X12390000Y-41250005D01*
X12390000Y-62799995D01*
X12389999Y-62800000D01*
X12410048Y-62900789D01*
X12457367Y-63138675D01*
X12572728Y-63311326D01*
X12649210Y-63425790D01*
X14829960Y-65606539D01*
X14829960Y-66497600D01*
X14874238Y-66732917D01*
X15013310Y-66949041D01*
X15225510Y-67094031D01*
X15328953Y-67114979D01*
X15297560Y-67270000D01*
X15297560Y-68570000D01*
X15341838Y-68805317D01*
X15480910Y-69021441D01*
X15693110Y-69166431D01*
X15945000Y-69217440D01*
X16107385Y-69217440D01*
X15931271Y-69290389D01*
X15875590Y-69520984D01*
X16595000Y-70240395D01*
X17314410Y-69520984D01*
X17258729Y-69290389D01*
X17049098Y-69217440D01*
X17245000Y-69217440D01*
X17480317Y-69173162D01*
X17696441Y-69034090D01*
X17841431Y-68821890D01*
X17892440Y-68570000D01*
X17892440Y-67270000D01*
X17863582Y-67116631D01*
X17947917Y-67100762D01*
X18164041Y-66961690D01*
X18309031Y-66749490D01*
X18360040Y-66497600D01*
X18360040Y-64262400D01*
X18357993Y-64251519D01*
X18374210Y-64275790D01*
X20104208Y-66005787D01*
X20104210Y-66005790D01*
X20391325Y-66197633D01*
X20429293Y-66205185D01*
X20585971Y-66439670D01*
X21072152Y-66764526D01*
X21645641Y-66878600D01*
X21704359Y-66878600D01*
X22277848Y-66764526D01*
X22749356Y-66449474D01*
X22813073Y-66603299D01*
X22991702Y-66781927D01*
X23225091Y-66878600D01*
X23929250Y-66878600D01*
X24088000Y-66719850D01*
X24088000Y-65507000D01*
X24342000Y-65507000D01*
X24342000Y-66719850D01*
X24500750Y-66878600D01*
X25204909Y-66878600D01*
X25438298Y-66781927D01*
X25616927Y-66603299D01*
X25713600Y-66369910D01*
X25713600Y-65665750D01*
X25554850Y-65507000D01*
X24342000Y-65507000D01*
X24088000Y-65507000D01*
X24068000Y-65507000D01*
X24068000Y-65253000D01*
X24088000Y-65253000D01*
X24088000Y-65233000D01*
X24342000Y-65233000D01*
X24342000Y-65253000D01*
X25554850Y-65253000D01*
X25713600Y-65094250D01*
X25713600Y-64390090D01*
X25616927Y-64156701D01*
X25438298Y-63978073D01*
X25282977Y-63913737D01*
X25304029Y-63899670D01*
X25420740Y-63725000D01*
X28884995Y-63725000D01*
X28885000Y-63725001D01*
X29181767Y-63665969D01*
X29223675Y-63657633D01*
X29510790Y-63465790D01*
X29510791Y-63465789D01*
X30075787Y-62900792D01*
X30075790Y-62900790D01*
X30267633Y-62613675D01*
X30289981Y-62501325D01*
X30335001Y-62275000D01*
X30335000Y-62274995D01*
X30335000Y-58100005D01*
X30335001Y-58100000D01*
X30267634Y-57761326D01*
X30119749Y-57540000D01*
X30075790Y-57474210D01*
X30075787Y-57474208D01*
X28925790Y-56324210D01*
X28890738Y-56300789D01*
X28638675Y-56132367D01*
X28582484Y-56121190D01*
X28300000Y-56064999D01*
X28299995Y-56065000D01*
X26166579Y-56065000D01*
X25810000Y-55708420D01*
X25810000Y-53760053D01*
X26177736Y-54005767D01*
X26726887Y-54115000D01*
X26783113Y-54115000D01*
X27332264Y-54005767D01*
X27649910Y-53793522D01*
X27675838Y-53931317D01*
X27814910Y-54147441D01*
X28027110Y-54292431D01*
X28279000Y-54343440D01*
X30311000Y-54343440D01*
X30546317Y-54299162D01*
X30762441Y-54160090D01*
X30907431Y-53947890D01*
X30958440Y-53696000D01*
X30958440Y-51664000D01*
X30914162Y-51428683D01*
X30775090Y-51212559D01*
X30626163Y-51110802D01*
X30852670Y-50771810D01*
X30978345Y-50140000D01*
X30852670Y-49508190D01*
X30554289Y-49061632D01*
X30762441Y-48927690D01*
X30907431Y-48715490D01*
X30958440Y-48463600D01*
X30958440Y-46736400D01*
X30914162Y-46501083D01*
X30775090Y-46284959D01*
X30562890Y-46139969D01*
X30521561Y-46131600D01*
X30539415Y-46119670D01*
X30864271Y-45633489D01*
X30978345Y-45060000D01*
X30864271Y-44486511D01*
X30539415Y-44000330D01*
X30224634Y-43790000D01*
X30539415Y-43579670D01*
X30864271Y-43093489D01*
X30978345Y-42520000D01*
X30864271Y-41946511D01*
X30539415Y-41460330D01*
X30224634Y-41250000D01*
X30539415Y-41039670D01*
X30864271Y-40553489D01*
X30978345Y-39980000D01*
X30864271Y-39406511D01*
X30539415Y-38920330D01*
X30224634Y-38710000D01*
X30539415Y-38499670D01*
X30864271Y-38013489D01*
X30978345Y-37440000D01*
X30864271Y-36866511D01*
X30539415Y-36380330D01*
X30229931Y-36173539D01*
X30645732Y-35802036D01*
X30899709Y-35274791D01*
X30902358Y-35259026D01*
X30781217Y-35027000D01*
X29422000Y-35027000D01*
X29422000Y-35047000D01*
X29168000Y-35047000D01*
X29168000Y-35027000D01*
X26882000Y-35027000D01*
X26882000Y-35047000D01*
X26628000Y-35047000D01*
X26628000Y-35027000D01*
X26608000Y-35027000D01*
X26608000Y-34773000D01*
X26628000Y-34773000D01*
X26628000Y-34753000D01*
X26882000Y-34753000D01*
X26882000Y-34773000D01*
X29168000Y-34773000D01*
X29168000Y-34753000D01*
X29422000Y-34753000D01*
X29422000Y-34773000D01*
X30781217Y-34773000D01*
X30902358Y-34540974D01*
X30899709Y-34525209D01*
X30645732Y-33997964D01*
X30470155Y-33841093D01*
X30546317Y-33826762D01*
X30762441Y-33687690D01*
X30907431Y-33475490D01*
X30958440Y-33223600D01*
X30958440Y-31496400D01*
X30914162Y-31261083D01*
X30775090Y-31044959D01*
X30562890Y-30899969D01*
X30521561Y-30891600D01*
X30539415Y-30879670D01*
X30864271Y-30393489D01*
X30978345Y-29820000D01*
X30864271Y-29246511D01*
X30539415Y-28760330D01*
X30224634Y-28550000D01*
X30539415Y-28339670D01*
X30864271Y-27853489D01*
X30978345Y-27280000D01*
X30864271Y-26706511D01*
X30539415Y-26220330D01*
X30224634Y-26010000D01*
X30539415Y-25799670D01*
X30864271Y-25313489D01*
X30978345Y-24740000D01*
X30864271Y-24166511D01*
X30539415Y-23680330D01*
X30224634Y-23470000D01*
X30539415Y-23259670D01*
X30864271Y-22773489D01*
X30978345Y-22200000D01*
X30864271Y-21626511D01*
X30539415Y-21140330D01*
X30224634Y-20930000D01*
X30539415Y-20719670D01*
X30864271Y-20233489D01*
X30978345Y-19660000D01*
X30864271Y-19086511D01*
X30539415Y-18600330D01*
X30053234Y-18275474D01*
X29479745Y-18161400D01*
X29110255Y-18161400D01*
X28536766Y-18275474D01*
X28050585Y-18600330D01*
X27933874Y-18775000D01*
X27884473Y-18775000D01*
X27797811Y-18645302D01*
X27332264Y-18334233D01*
X26783113Y-18225000D01*
X26726887Y-18225000D01*
X26177736Y-18334233D01*
X25735000Y-18630060D01*
X25735000Y-16750000D01*
X25648603Y-16315654D01*
X25402566Y-15947434D01*
X22077565Y-12622433D01*
X21709346Y-12376397D01*
X21275000Y-12290000D01*
X17000000Y-12290000D01*
X16565655Y-12376396D01*
X16197434Y-12622433D01*
X14577174Y-14242693D01*
X14452187Y-14190794D01*
X13801946Y-14190226D01*
X13200985Y-14438538D01*
X12740794Y-14897927D01*
X12491434Y-15498453D01*
X12490866Y-16148694D01*
X12739178Y-16749655D01*
X12990640Y-17001556D01*
X12990640Y-33762049D01*
X12953559Y-33785910D01*
X12808569Y-33998110D01*
X12757560Y-34250000D01*
X12757560Y-35550000D01*
X12801838Y-35785317D01*
X12940910Y-36001441D01*
X13153110Y-36146431D01*
X13405000Y-36197440D01*
X13567385Y-36197440D01*
X13391271Y-36270389D01*
X13335590Y-36500984D01*
X14055000Y-37220395D01*
X14774410Y-36500984D01*
X14718729Y-36270389D01*
X14509098Y-36197440D01*
X14705000Y-36197440D01*
X14940317Y-36153162D01*
X15123946Y-36035000D01*
X15463324Y-36035000D01*
X15660069Y-36166461D01*
X15244268Y-36537964D01*
X15152480Y-36728512D01*
X14954016Y-36680590D01*
X14234605Y-37400000D01*
X14954016Y-38119410D01*
X15117959Y-38079823D01*
X15244268Y-38342036D01*
X15298124Y-38390154D01*
X15127559Y-38499910D01*
X14982569Y-38712110D01*
X14931560Y-38964000D01*
X14931560Y-39095000D01*
X14545005Y-39095000D01*
X14545000Y-39094999D01*
X14206325Y-39162367D01*
X13919210Y-39354210D01*
X13919208Y-39354213D01*
X12649210Y-40624210D01*
X12457367Y-40911325D01*
X12457367Y-40911326D01*
X12389999Y-41250000D01*
X12027000Y-41250000D01*
X12027000Y-38299016D01*
X13335590Y-38299016D01*
X13391271Y-38529611D01*
X13874078Y-38697622D01*
X14384428Y-38668083D01*
X14718729Y-38529611D01*
X14774410Y-38299016D01*
X14055000Y-37579605D01*
X13335590Y-38299016D01*
X12027000Y-38299016D01*
X12027000Y-37219078D01*
X12757378Y-37219078D01*
X12786917Y-37729428D01*
X12925389Y-38063729D01*
X13155984Y-38119410D01*
X13875395Y-37400000D01*
X13155984Y-36680590D01*
X12925389Y-36736271D01*
X12757378Y-37219078D01*
X12027000Y-37219078D01*
X12027000Y-12152606D01*
X12052606Y-12127000D01*
X31848000Y-12127000D01*
X31848000Y-73048000D01*
X31848000Y-73048000D01*
G37*
X31848000Y-73048000D02*
X12027000Y-73048000D01*
X12027000Y-71319016D01*
X15875590Y-71319016D01*
X15931271Y-71549611D01*
X16414078Y-71717622D01*
X16924428Y-71688083D01*
X17258729Y-71549611D01*
X17314410Y-71319016D01*
X16595000Y-70599605D01*
X15875590Y-71319016D01*
X12027000Y-71319016D01*
X12027000Y-70239078D01*
X15297378Y-70239078D01*
X15326917Y-70749428D01*
X15465389Y-71083729D01*
X15695984Y-71139410D01*
X16415395Y-70420000D01*
X16774605Y-70420000D01*
X17494016Y-71139410D01*
X17724611Y-71083729D01*
X17892622Y-70600922D01*
X17863083Y-70090572D01*
X17724611Y-69756271D01*
X17494016Y-69700590D01*
X16774605Y-70420000D01*
X16415395Y-70420000D01*
X15695984Y-69700590D01*
X15465389Y-69756271D01*
X15297378Y-70239078D01*
X12027000Y-70239078D01*
X12027000Y-41250000D01*
X12389999Y-41250000D01*
X12390000Y-41250005D01*
X12390000Y-62799995D01*
X12389999Y-62800000D01*
X12410048Y-62900789D01*
X12457367Y-63138675D01*
X12572728Y-63311326D01*
X12649210Y-63425790D01*
X14829960Y-65606539D01*
X14829960Y-66497600D01*
X14874238Y-66732917D01*
X15013310Y-66949041D01*
X15225510Y-67094031D01*
X15328953Y-67114979D01*
X15297560Y-67270000D01*
X15297560Y-68570000D01*
X15341838Y-68805317D01*
X15480910Y-69021441D01*
X15693110Y-69166431D01*
X15945000Y-69217440D01*
X16107385Y-69217440D01*
X15931271Y-69290389D01*
X15875590Y-69520984D01*
X16595000Y-70240395D01*
X17314410Y-69520984D01*
X17258729Y-69290389D01*
X17049098Y-69217440D01*
X17245000Y-69217440D01*
X17480317Y-69173162D01*
X17696441Y-69034090D01*
X17841431Y-68821890D01*
X17892440Y-68570000D01*
X17892440Y-67270000D01*
X17863582Y-67116631D01*
X17947917Y-67100762D01*
X18164041Y-66961690D01*
X18309031Y-66749490D01*
X18360040Y-66497600D01*
X18360040Y-64262400D01*
X18357993Y-64251519D01*
X18374210Y-64275790D01*
X20104208Y-66005787D01*
X20104210Y-66005790D01*
X20391325Y-66197633D01*
X20429293Y-66205185D01*
X20585971Y-66439670D01*
X21072152Y-66764526D01*
X21645641Y-66878600D01*
X21704359Y-66878600D01*
X22277848Y-66764526D01*
X22749356Y-66449474D01*
X22813073Y-66603299D01*
X22991702Y-66781927D01*
X23225091Y-66878600D01*
X23929250Y-66878600D01*
X24088000Y-66719850D01*
X24088000Y-65507000D01*
X24342000Y-65507000D01*
X24342000Y-66719850D01*
X24500750Y-66878600D01*
X25204909Y-66878600D01*
X25438298Y-66781927D01*
X25616927Y-66603299D01*
X25713600Y-66369910D01*
X25713600Y-65665750D01*
X25554850Y-65507000D01*
X24342000Y-65507000D01*
X24088000Y-65507000D01*
X24068000Y-65507000D01*
X24068000Y-65253000D01*
X24088000Y-65253000D01*
X24088000Y-65233000D01*
X24342000Y-65233000D01*
X24342000Y-65253000D01*
X25554850Y-65253000D01*
X25713600Y-65094250D01*
X25713600Y-64390090D01*
X25616927Y-64156701D01*
X25438298Y-63978073D01*
X25282977Y-63913737D01*
X25304029Y-63899670D01*
X25420740Y-63725000D01*
X28884995Y-63725000D01*
X28885000Y-63725001D01*
X29181767Y-63665969D01*
X29223675Y-63657633D01*
X29510790Y-63465790D01*
X29510791Y-63465789D01*
X30075787Y-62900792D01*
X30075790Y-62900790D01*
X30267633Y-62613675D01*
X30289981Y-62501325D01*
X30335001Y-62275000D01*
X30335000Y-62274995D01*
X30335000Y-58100005D01*
X30335001Y-58100000D01*
X30267634Y-57761326D01*
X30119749Y-57540000D01*
X30075790Y-57474210D01*
X30075787Y-57474208D01*
X28925790Y-56324210D01*
X28890738Y-56300789D01*
X28638675Y-56132367D01*
X28582484Y-56121190D01*
X28300000Y-56064999D01*
X28299995Y-56065000D01*
X26166579Y-56065000D01*
X25810000Y-55708420D01*
X25810000Y-53760053D01*
X26177736Y-54005767D01*
X26726887Y-54115000D01*
X26783113Y-54115000D01*
X27332264Y-54005767D01*
X27649910Y-53793522D01*
X27675838Y-53931317D01*
X27814910Y-54147441D01*
X28027110Y-54292431D01*
X28279000Y-54343440D01*
X30311000Y-54343440D01*
X30546317Y-54299162D01*
X30762441Y-54160090D01*
X30907431Y-53947890D01*
X30958440Y-53696000D01*
X30958440Y-51664000D01*
X30914162Y-51428683D01*
X30775090Y-51212559D01*
X30626163Y-51110802D01*
X30852670Y-50771810D01*
X30978345Y-50140000D01*
X30852670Y-49508190D01*
X30554289Y-49061632D01*
X30762441Y-48927690D01*
X30907431Y-48715490D01*
X30958440Y-48463600D01*
X30958440Y-46736400D01*
X30914162Y-46501083D01*
X30775090Y-46284959D01*
X30562890Y-46139969D01*
X30521561Y-46131600D01*
X30539415Y-46119670D01*
X30864271Y-45633489D01*
X30978345Y-45060000D01*
X30864271Y-44486511D01*
X30539415Y-44000330D01*
X30224634Y-43790000D01*
X30539415Y-43579670D01*
X30864271Y-43093489D01*
X30978345Y-42520000D01*
X30864271Y-41946511D01*
X30539415Y-41460330D01*
X30224634Y-41250000D01*
X30539415Y-41039670D01*
X30864271Y-40553489D01*
X30978345Y-39980000D01*
X30864271Y-39406511D01*
X30539415Y-38920330D01*
X30224634Y-38710000D01*
X30539415Y-38499670D01*
X30864271Y-38013489D01*
X30978345Y-37440000D01*
X30864271Y-36866511D01*
X30539415Y-36380330D01*
X30229931Y-36173539D01*
X30645732Y-35802036D01*
X30899709Y-35274791D01*
X30902358Y-35259026D01*
X30781217Y-35027000D01*
X29422000Y-35027000D01*
X29422000Y-35047000D01*
X29168000Y-35047000D01*
X29168000Y-35027000D01*
X26882000Y-35027000D01*
X26882000Y-35047000D01*
X26628000Y-35047000D01*
X26628000Y-35027000D01*
X26608000Y-35027000D01*
X26608000Y-34773000D01*
X26628000Y-34773000D01*
X26628000Y-34753000D01*
X26882000Y-34753000D01*
X26882000Y-34773000D01*
X29168000Y-34773000D01*
X29168000Y-34753000D01*
X29422000Y-34753000D01*
X29422000Y-34773000D01*
X30781217Y-34773000D01*
X30902358Y-34540974D01*
X30899709Y-34525209D01*
X30645732Y-33997964D01*
X30470155Y-33841093D01*
X30546317Y-33826762D01*
X30762441Y-33687690D01*
X30907431Y-33475490D01*
X30958440Y-33223600D01*
X30958440Y-31496400D01*
X30914162Y-31261083D01*
X30775090Y-31044959D01*
X30562890Y-30899969D01*
X30521561Y-30891600D01*
X30539415Y-30879670D01*
X30864271Y-30393489D01*
X30978345Y-29820000D01*
X30864271Y-29246511D01*
X30539415Y-28760330D01*
X30224634Y-28550000D01*
X30539415Y-28339670D01*
X30864271Y-27853489D01*
X30978345Y-27280000D01*
X30864271Y-26706511D01*
X30539415Y-26220330D01*
X30224634Y-26010000D01*
X30539415Y-25799670D01*
X30864271Y-25313489D01*
X30978345Y-24740000D01*
X30864271Y-24166511D01*
X30539415Y-23680330D01*
X30224634Y-23470000D01*
X30539415Y-23259670D01*
X30864271Y-22773489D01*
X30978345Y-22200000D01*
X30864271Y-21626511D01*
X30539415Y-21140330D01*
X30224634Y-20930000D01*
X30539415Y-20719670D01*
X30864271Y-20233489D01*
X30978345Y-19660000D01*
X30864271Y-19086511D01*
X30539415Y-18600330D01*
X30053234Y-18275474D01*
X29479745Y-18161400D01*
X29110255Y-18161400D01*
X28536766Y-18275474D01*
X28050585Y-18600330D01*
X27933874Y-18775000D01*
X27884473Y-18775000D01*
X27797811Y-18645302D01*
X27332264Y-18334233D01*
X26783113Y-18225000D01*
X26726887Y-18225000D01*
X26177736Y-18334233D01*
X25735000Y-18630060D01*
X25735000Y-16750000D01*
X25648603Y-16315654D01*
X25402566Y-15947434D01*
X22077565Y-12622433D01*
X21709346Y-12376397D01*
X21275000Y-12290000D01*
X17000000Y-12290000D01*
X16565655Y-12376396D01*
X16197434Y-12622433D01*
X14577174Y-14242693D01*
X14452187Y-14190794D01*
X13801946Y-14190226D01*
X13200985Y-14438538D01*
X12740794Y-14897927D01*
X12491434Y-15498453D01*
X12490866Y-16148694D01*
X12739178Y-16749655D01*
X12990640Y-17001556D01*
X12990640Y-33762049D01*
X12953559Y-33785910D01*
X12808569Y-33998110D01*
X12757560Y-34250000D01*
X12757560Y-35550000D01*
X12801838Y-35785317D01*
X12940910Y-36001441D01*
X13153110Y-36146431D01*
X13405000Y-36197440D01*
X13567385Y-36197440D01*
X13391271Y-36270389D01*
X13335590Y-36500984D01*
X14055000Y-37220395D01*
X14774410Y-36500984D01*
X14718729Y-36270389D01*
X14509098Y-36197440D01*
X14705000Y-36197440D01*
X14940317Y-36153162D01*
X15123946Y-36035000D01*
X15463324Y-36035000D01*
X15660069Y-36166461D01*
X15244268Y-36537964D01*
X15152480Y-36728512D01*
X14954016Y-36680590D01*
X14234605Y-37400000D01*
X14954016Y-38119410D01*
X15117959Y-38079823D01*
X15244268Y-38342036D01*
X15298124Y-38390154D01*
X15127559Y-38499910D01*
X14982569Y-38712110D01*
X14931560Y-38964000D01*
X14931560Y-39095000D01*
X14545005Y-39095000D01*
X14545000Y-39094999D01*
X14206325Y-39162367D01*
X13919210Y-39354210D01*
X13919208Y-39354213D01*
X12649210Y-40624210D01*
X12457367Y-40911325D01*
X12457367Y-40911326D01*
X12389999Y-41250000D01*
X12027000Y-41250000D01*
X12027000Y-38299016D01*
X13335590Y-38299016D01*
X13391271Y-38529611D01*
X13874078Y-38697622D01*
X14384428Y-38668083D01*
X14718729Y-38529611D01*
X14774410Y-38299016D01*
X14055000Y-37579605D01*
X13335590Y-38299016D01*
X12027000Y-38299016D01*
X12027000Y-37219078D01*
X12757378Y-37219078D01*
X12786917Y-37729428D01*
X12925389Y-38063729D01*
X13155984Y-38119410D01*
X13875395Y-37400000D01*
X13155984Y-36680590D01*
X12925389Y-36736271D01*
X12757378Y-37219078D01*
X12027000Y-37219078D01*
X12027000Y-12152606D01*
X12052606Y-12127000D01*
X31848000Y-12127000D01*
X31848000Y-73048000D01*
G36*
X21190000Y-22716579D02*
X21190000Y-54658421D01*
X18374210Y-57474210D01*
X18182367Y-57761325D01*
X18182367Y-57761326D01*
X18114999Y-58100000D01*
X18115000Y-58100005D01*
X18115000Y-58688808D01*
X17964490Y-58585969D01*
X17712600Y-58534960D01*
X17597469Y-58534960D01*
X17683735Y-58448845D01*
X17879777Y-57976724D01*
X17880223Y-57465519D01*
X17685005Y-56993057D01*
X17323845Y-56631265D01*
X17019765Y-56505000D01*
X17371310Y-56505000D01*
X17604699Y-56408327D01*
X17783327Y-56229698D01*
X17880000Y-55996309D01*
X17880000Y-55505750D01*
X17721250Y-55347000D01*
X16722000Y-55347000D01*
X16722000Y-55367000D01*
X16468000Y-55367000D01*
X16468000Y-55347000D01*
X15468750Y-55347000D01*
X15310000Y-55505750D01*
X15310000Y-55833420D01*
X15235000Y-55758420D01*
X15235000Y-53566685D01*
X15350585Y-53739670D01*
X15710182Y-53979945D01*
X15585301Y-54031673D01*
X15406673Y-54210302D01*
X15310000Y-54443691D01*
X15310000Y-54934250D01*
X15468750Y-55093000D01*
X16468000Y-55093000D01*
X16468000Y-55073000D01*
X16722000Y-55073000D01*
X16722000Y-55093000D01*
X17721250Y-55093000D01*
X17880000Y-54934250D01*
X17880000Y-54443691D01*
X17783327Y-54210302D01*
X17604699Y-54031673D01*
X17479818Y-53979945D01*
X17839415Y-53739670D01*
X17956126Y-53565000D01*
X18005527Y-53565000D01*
X18092189Y-53694698D01*
X18557736Y-54005767D01*
X19106887Y-54115000D01*
X19163113Y-54115000D01*
X19712264Y-54005767D01*
X20177811Y-53694698D01*
X20488880Y-53229151D01*
X20598113Y-52680000D01*
X20488880Y-52130849D01*
X20177811Y-51665302D01*
X19795725Y-51410000D01*
X20177811Y-51154698D01*
X20488880Y-50689151D01*
X20598113Y-50140000D01*
X20488880Y-49590849D01*
X20177811Y-49125302D01*
X19795725Y-48870000D01*
X20177811Y-48614698D01*
X20488880Y-48149151D01*
X20598113Y-47600000D01*
X20488880Y-47050849D01*
X20177811Y-46585302D01*
X19795725Y-46330000D01*
X20177811Y-46074698D01*
X20488880Y-45609151D01*
X20598113Y-45060000D01*
X20488880Y-44510849D01*
X20177811Y-44045302D01*
X19795725Y-43790000D01*
X20177811Y-43534698D01*
X20488880Y-43069151D01*
X20598113Y-42520000D01*
X20488880Y-41970849D01*
X20177811Y-41505302D01*
X19795725Y-41250000D01*
X20177811Y-40994698D01*
X20488880Y-40529151D01*
X20598113Y-39980000D01*
X20488880Y-39430849D01*
X20177811Y-38965302D01*
X19773297Y-38695014D01*
X19990134Y-38592389D01*
X20366041Y-38177423D01*
X20526904Y-37789039D01*
X20404915Y-37567000D01*
X19262000Y-37567000D01*
X19262000Y-37587000D01*
X19008000Y-37587000D01*
X19008000Y-37567000D01*
X16722000Y-37567000D01*
X16722000Y-37587000D01*
X16468000Y-37587000D01*
X16468000Y-37567000D01*
X16448000Y-37567000D01*
X16448000Y-37313000D01*
X16468000Y-37313000D01*
X16468000Y-37293000D01*
X16722000Y-37293000D01*
X16722000Y-37313000D01*
X19008000Y-37313000D01*
X19008000Y-37293000D01*
X19262000Y-37293000D01*
X19262000Y-37313000D01*
X20404915Y-37313000D01*
X20526904Y-37090961D01*
X20366041Y-36702577D01*
X19990134Y-36287611D01*
X19773297Y-36184986D01*
X20177811Y-35914698D01*
X20488880Y-35449151D01*
X20598113Y-34900000D01*
X20488880Y-34350849D01*
X20177811Y-33885302D01*
X19795725Y-33630000D01*
X20177811Y-33374698D01*
X20488880Y-32909151D01*
X20598113Y-32360000D01*
X20488880Y-31810849D01*
X20177811Y-31345302D01*
X19795725Y-31090000D01*
X20177811Y-30834698D01*
X20488880Y-30369151D01*
X20598113Y-29820000D01*
X20488880Y-29270849D01*
X20177811Y-28805302D01*
X19795725Y-28550000D01*
X20177811Y-28294698D01*
X20488880Y-27829151D01*
X20598113Y-27280000D01*
X20488880Y-26730849D01*
X20177811Y-26265302D01*
X19795725Y-26010000D01*
X20177811Y-25754698D01*
X20488880Y-25289151D01*
X20598113Y-24740000D01*
X20488880Y-24190849D01*
X20177811Y-23725302D01*
X19795725Y-23470000D01*
X20177811Y-23214698D01*
X20488880Y-22749151D01*
X20598113Y-22200000D01*
X20579414Y-22105993D01*
X21190000Y-22716579D01*
X21190000Y-22716579D01*
G37*
X21190000Y-22716579D02*
X21190000Y-54658421D01*
X18374210Y-57474210D01*
X18182367Y-57761325D01*
X18182367Y-57761326D01*
X18114999Y-58100000D01*
X18115000Y-58100005D01*
X18115000Y-58688808D01*
X17964490Y-58585969D01*
X17712600Y-58534960D01*
X17597469Y-58534960D01*
X17683735Y-58448845D01*
X17879777Y-57976724D01*
X17880223Y-57465519D01*
X17685005Y-56993057D01*
X17323845Y-56631265D01*
X17019765Y-56505000D01*
X17371310Y-56505000D01*
X17604699Y-56408327D01*
X17783327Y-56229698D01*
X17880000Y-55996309D01*
X17880000Y-55505750D01*
X17721250Y-55347000D01*
X16722000Y-55347000D01*
X16722000Y-55367000D01*
X16468000Y-55367000D01*
X16468000Y-55347000D01*
X15468750Y-55347000D01*
X15310000Y-55505750D01*
X15310000Y-55833420D01*
X15235000Y-55758420D01*
X15235000Y-53566685D01*
X15350585Y-53739670D01*
X15710182Y-53979945D01*
X15585301Y-54031673D01*
X15406673Y-54210302D01*
X15310000Y-54443691D01*
X15310000Y-54934250D01*
X15468750Y-55093000D01*
X16468000Y-55093000D01*
X16468000Y-55073000D01*
X16722000Y-55073000D01*
X16722000Y-55093000D01*
X17721250Y-55093000D01*
X17880000Y-54934250D01*
X17880000Y-54443691D01*
X17783327Y-54210302D01*
X17604699Y-54031673D01*
X17479818Y-53979945D01*
X17839415Y-53739670D01*
X17956126Y-53565000D01*
X18005527Y-53565000D01*
X18092189Y-53694698D01*
X18557736Y-54005767D01*
X19106887Y-54115000D01*
X19163113Y-54115000D01*
X19712264Y-54005767D01*
X20177811Y-53694698D01*
X20488880Y-53229151D01*
X20598113Y-52680000D01*
X20488880Y-52130849D01*
X20177811Y-51665302D01*
X19795725Y-51410000D01*
X20177811Y-51154698D01*
X20488880Y-50689151D01*
X20598113Y-50140000D01*
X20488880Y-49590849D01*
X20177811Y-49125302D01*
X19795725Y-48870000D01*
X20177811Y-48614698D01*
X20488880Y-48149151D01*
X20598113Y-47600000D01*
X20488880Y-47050849D01*
X20177811Y-46585302D01*
X19795725Y-46330000D01*
X20177811Y-46074698D01*
X20488880Y-45609151D01*
X20598113Y-45060000D01*
X20488880Y-44510849D01*
X20177811Y-44045302D01*
X19795725Y-43790000D01*
X20177811Y-43534698D01*
X20488880Y-43069151D01*
X20598113Y-42520000D01*
X20488880Y-41970849D01*
X20177811Y-41505302D01*
X19795725Y-41250000D01*
X20177811Y-40994698D01*
X20488880Y-40529151D01*
X20598113Y-39980000D01*
X20488880Y-39430849D01*
X20177811Y-38965302D01*
X19773297Y-38695014D01*
X19990134Y-38592389D01*
X20366041Y-38177423D01*
X20526904Y-37789039D01*
X20404915Y-37567000D01*
X19262000Y-37567000D01*
X19262000Y-37587000D01*
X19008000Y-37587000D01*
X19008000Y-37567000D01*
X16722000Y-37567000D01*
X16722000Y-37587000D01*
X16468000Y-37587000D01*
X16468000Y-37567000D01*
X16448000Y-37567000D01*
X16448000Y-37313000D01*
X16468000Y-37313000D01*
X16468000Y-37293000D01*
X16722000Y-37293000D01*
X16722000Y-37313000D01*
X19008000Y-37313000D01*
X19008000Y-37293000D01*
X19262000Y-37293000D01*
X19262000Y-37313000D01*
X20404915Y-37313000D01*
X20526904Y-37090961D01*
X20366041Y-36702577D01*
X19990134Y-36287611D01*
X19773297Y-36184986D01*
X20177811Y-35914698D01*
X20488880Y-35449151D01*
X20598113Y-34900000D01*
X20488880Y-34350849D01*
X20177811Y-33885302D01*
X19795725Y-33630000D01*
X20177811Y-33374698D01*
X20488880Y-32909151D01*
X20598113Y-32360000D01*
X20488880Y-31810849D01*
X20177811Y-31345302D01*
X19795725Y-31090000D01*
X20177811Y-30834698D01*
X20488880Y-30369151D01*
X20598113Y-29820000D01*
X20488880Y-29270849D01*
X20177811Y-28805302D01*
X19795725Y-28550000D01*
X20177811Y-28294698D01*
X20488880Y-27829151D01*
X20598113Y-27280000D01*
X20488880Y-26730849D01*
X20177811Y-26265302D01*
X19795725Y-26010000D01*
X20177811Y-25754698D01*
X20488880Y-25289151D01*
X20598113Y-24740000D01*
X20488880Y-24190849D01*
X20177811Y-23725302D01*
X19795725Y-23470000D01*
X20177811Y-23214698D01*
X20488880Y-22749151D01*
X20598113Y-22200000D01*
X20579414Y-22105993D01*
X21190000Y-22716579D01*
M02*
