M48
;DRILL file {KiCad 4.0.0-1rc2.201511201506+6189~38~ubuntu15.04.1-stable} date Sa 09 Jan 2016 18:22:45 CET
;FORMAT={-:-/ absolute / metric / decimal}
FMAT,2
METRIC,TZ
T1C0.800
T2C0.800
T3C1.001
T4C1.016
T5C1.199
%
G90
G05
M71
T1
X16.256Y-67.564
X19.812Y-44.45
X22.352Y-29.21
X22.352Y-31.75
X22.352Y-34.29
X22.352Y-36.83
X22.352Y-39.37
X22.352Y-41.91
X22.352Y-44.45
X22.352Y-46.99
X22.352Y-49.53
X22.352Y-52.07
X22.352Y-54.61
X22.352Y-57.15
X22.352Y-59.69
X22.352Y-62.23
X29.972Y-29.21
X29.972Y-31.75
X29.972Y-34.29
X29.972Y-36.83
X29.972Y-39.37
X29.972Y-41.91
X29.972Y-44.45
X29.972Y-46.99
X29.972Y-49.53
X29.972Y-52.07
X29.972Y-54.61
X29.972Y-57.15
X29.972Y-59.69
X29.972Y-62.23
X33.274Y-67.564
T2
X18.756Y-67.564
X19.812Y-46.95
X35.774Y-67.564
T3
X15.748Y-16.51
X17.31Y-23.368
X22.311Y-23.368
X25.908Y-16.51
X26.425Y-21.853
X29.961Y-25.389
X38.354Y-14.265
X38.354Y-19.266
T4
X17.272Y-29.21
X17.272Y-31.75
X17.272Y-34.29
X17.272Y-36.83
X17.272Y-39.37
X17.272Y-41.91
X17.272Y-49.53
X17.272Y-52.07
X17.272Y-54.61
X17.272Y-57.15
X17.272Y-59.69
X17.272Y-62.23
X20.828Y-18.796
X23.368Y-18.796
X30.226Y-18.796
X30.226Y-21.336
X32.766Y-18.796
X32.766Y-21.336
X35.052Y-29.21
X35.052Y-31.75
X35.052Y-34.29
X35.052Y-36.83
X35.052Y-41.91
X35.052Y-44.45
X35.052Y-46.99
X35.052Y-49.53
X35.052Y-54.61
X35.052Y-57.15
X35.052Y-59.69
X35.052Y-62.23
X35.306Y-18.796
X35.306Y-21.336
T5
X23.467Y-67.564
X28.349Y-67.564
T0
M30
